<svg xmlns="http://www.w3.org/2000/svg" width="600" height="600" viewBox="0 0 600 600" version="1.1">
    <path
        d="M 0 300.002 L 0 600.003 300.250 599.752 L 600.500 599.500 600.752 299.750 L 601.003 0 300.502 0 L 0 0 0 300.002 M 0.493 300.500 C 0.493 465.500, 0.609 532.851, 0.750 450.169 C 0.891 367.487, 0.891 232.487, 0.750 150.169 C 0.609 67.851, 0.493 135.500, 0.493 300.500 M 60.500 58 L 114.493 112 300.617 112 L 486.740 112 535.201 63.250 C 561.854 36.438, 585.824 12.138, 588.468 9.250 L 593.274 4 299.890 4 L 6.507 4 60.500 58 M 4 300.322 L 4 594.138 57.946 541.319 L 111.892 488.500 111.946 301.497 L 112 114.493 58 60.500 L 4 6.507 4 300.322 M 541.707 62.415 L 488 116.831 488.051 301.665 L 488.102 486.500 542.051 539.856 L 596 593.212 596 300.606 C 596 139.673, 595.868 8, 595.707 8 C 595.546 8, 571.246 32.487, 541.707 62.415 M 115 301 L 115 486 300 486 L 485 486 485 301 L 485 116 300 116 L 115 116 115 301 M 61.794 542.805 L 8.088 595.500 154.625 595.753 C 235.220 595.893, 366.713 595.893, 446.831 595.753 L 592.500 595.500 539.403 542.750 L 486.306 490 300.903 490.055 L 115.500 490.111 61.794 542.805 M 285.500 498.936 C 271.408 501.241, 260.871 506.203, 252.452 514.500 C 243.635 523.188, 241.500 528.159, 241.500 540 C 241.500 551.834, 243.632 556.803, 252.440 565.500 C 278.510 591.240, 331.661 585.331, 347.644 554.916 C 350.193 550.067, 350.490 548.506, 350.490 540 C 350.490 531.479, 350.195 529.938, 347.625 525.046 C 341.828 514.012, 327.173 503.525, 312.769 500.104 C 306.314 498.571, 291.585 497.940, 285.500 498.936 M 283.199 503.504 C 267.550 506.339, 253.324 515.998, 247.855 527.500 C 237.931 548.371, 254.729 571.376, 283.658 576.533 C 293.519 578.290, 298.481 578.290, 308.342 576.533 C 323.717 573.792, 337.375 564.971, 343.578 553.774 C 346.165 549.106, 346.500 547.524, 346.500 540 C 346.500 532.476, 346.165 530.894, 343.578 526.226 C 337.375 515.029, 323.717 506.208, 308.342 503.467 C 298.782 501.764, 292.753 501.772, 283.199 503.504"
        stroke="none" fill="#060606" fill-rule="evenodd" />
    <path
        d="M 60.500 58 L 114.493 112 300.617 112 L 486.740 112 535.201 63.250 C 561.854 36.438, 585.824 12.138, 588.468 9.250 L 593.274 4 299.890 4 L 6.507 4 60.500 58 M 4 300.322 L 4 594.138 57.946 541.319 L 111.892 488.500 111.946 301.497 L 112 114.493 58 60.500 L 4 6.507 4 300.322 M 541.707 62.415 L 488 116.831 488.051 301.665 L 488.102 486.500 542.051 539.856 L 596 593.212 596 300.606 C 596 139.673, 595.868 8, 595.707 8 C 595.546 8, 571.246 32.487, 541.707 62.415 M 115 301 L 115 486 300 486 L 485 486 485 301 L 485 116 300 116 L 115 116 115 301 M 61.794 542.805 L 8.088 595.500 154.625 595.753 C 235.220 595.893, 366.713 595.893, 446.831 595.753 L 592.500 595.500 539.403 542.750 L 486.306 490 300.903 490.055 L 115.500 490.111 61.794 542.805 M 285.500 498.936 C 271.408 501.241, 260.871 506.203, 252.452 514.500 C 243.635 523.188, 241.500 528.159, 241.500 540 C 241.500 551.834, 243.632 556.803, 252.440 565.500 C 278.510 591.240, 331.661 585.331, 347.644 554.916 C 350.193 550.067, 350.490 548.506, 350.490 540 C 350.490 531.479, 350.195 529.938, 347.625 525.046 C 341.828 514.012, 327.173 503.525, 312.769 500.104 C 306.314 498.571, 291.585 497.940, 285.500 498.936 M 283.199 503.504 C 267.550 506.339, 253.324 515.998, 247.855 527.500 C 237.931 548.371, 254.729 571.376, 283.658 576.533 C 293.519 578.290, 298.481 578.290, 308.342 576.533 C 323.717 573.792, 337.375 564.971, 343.578 553.774 C 346.165 549.106, 346.500 547.524, 346.500 540 C 346.500 532.476, 346.165 530.894, 343.578 526.226 C 337.375 515.029, 323.717 506.208, 308.342 503.467 C 298.782 501.764, 292.753 501.772, 283.199 503.504"
        stroke="none" fill="#fbfbfb" fill-rule="evenodd" />
</svg>