<svg xmlns="http://www.w3.org/2000/svg" width="600" height="600" viewBox="0 0 600 600" version="1.1"><path d="M 0 300.002 L 0 600.003 300.250 599.752 L 600.500 599.500 600.752 299.750 L 601.003 0 300.502 0 L 0 0 0 300.002 M 0.493 300.500 C 0.493 465.500, 0.609 532.851, 0.750 450.169 C 0.891 367.487, 0.891 232.487, 0.750 150.169 C 0.609 67.851, 0.493 135.500, 0.493 300.500 M 9.122 6.943 C 10.430 8.562, 34 32.829, 61.500 60.869 L 111.500 111.851 298.503 111.926 L 485.507 112 539.500 58 L 593.493 4 300.118 4 L 6.744 4 9.122 6.943 M 541.750 60.750 L 488 114.507 488 300.658 L 488 486.810 541.750 540.336 L 595.500 593.862 595.753 447.512 C 595.893 367.019, 595.893 234.974, 595.753 154.077 L 595.500 6.993 541.750 60.750 M 4.051 300.348 L 4 593.196 56.953 539.848 L 109.907 486.500 109.953 301.123 L 110 115.746 70.250 75.275 C 48.387 53.016, 24.560 28.661, 17.301 21.152 L 4.102 7.500 4.051 300.348 M 114 300 L 114 484 299.500 484 L 485 484 485 300 L 485 116 299.500 116 L 114 116 114 300 M 45.283 244.466 C 33.347 250.485, 24.554 262.323, 20.323 278.072 C 17.958 286.872, 17.996 305.198, 20.397 314 C 24.423 328.756, 34.013 341.826, 45.084 347.644 C 49.933 350.193, 51.494 350.490, 60 350.490 C 68.521 350.490, 70.062 350.195, 74.954 347.625 C 86.210 341.711, 96.465 327.193, 100.118 312 C 102 304.173, 101.716 285.972, 99.590 278.085 C 95.491 262.886, 86.877 250.883, 75.834 244.986 C 70.377 242.071, 68.324 241.549, 61 241.214 C 52.852 240.842, 52.201 240.977, 45.283 244.466 M 47.500 247.855 C 32.936 254.780, 22.070 275.352, 22.070 296 C 22.070 316.648, 32.936 337.220, 47.500 344.145 C 68.371 354.069, 91.376 337.271, 96.533 308.342 C 98.290 298.481, 98.290 293.519, 96.533 283.658 C 92.530 261.204, 77.218 245.002, 60 245.002 C 54.921 245.002, 52.188 245.625, 47.500 247.855 M 60.112 542.083 L 6.724 596 299.549 596 L 592.374 596 537.937 542.053 L 483.500 488.106 298.500 488.136 L 113.500 488.167 60.112 542.083" stroke="none" fill="#050505" fill-rule="evenodd"/><path d="M 9.122 6.943 C 10.430 8.562, 34 32.829, 61.500 60.869 L 111.500 111.851 298.503 111.926 L 485.507 112 539.500 58 L 593.493 4 300.118 4 L 6.744 4 9.122 6.943 M 541.750 60.750 L 488 114.507 488 300.658 L 488 486.810 541.750 540.336 L 595.500 593.862 595.753 447.512 C 595.893 367.019, 595.893 234.974, 595.753 154.077 L 595.500 6.993 541.750 60.750 M 4.051 300.348 L 4 593.196 56.953 539.848 L 109.907 486.500 109.953 301.123 L 110 115.746 70.250 75.275 C 48.387 53.016, 24.560 28.661, 17.301 21.152 L 4.102 7.500 4.051 300.348 M 114 300 L 114 484 299.500 484 L 485 484 485 300 L 485 116 299.500 116 L 114 116 114 300 M 45.283 244.466 C 33.347 250.485, 24.554 262.323, 20.323 278.072 C 17.958 286.872, 17.996 305.198, 20.397 314 C 24.423 328.756, 34.013 341.826, 45.084 347.644 C 49.933 350.193, 51.494 350.490, 60 350.490 C 68.521 350.490, 70.062 350.195, 74.954 347.625 C 86.210 341.711, 96.465 327.193, 100.118 312 C 102 304.173, 101.716 285.972, 99.590 278.085 C 95.491 262.886, 86.877 250.883, 75.834 244.986 C 70.377 242.071, 68.324 241.549, 61 241.214 C 52.852 240.842, 52.201 240.977, 45.283 244.466 M 47.500 247.855 C 32.936 254.780, 22.070 275.352, 22.070 296 C 22.070 316.648, 32.936 337.220, 47.500 344.145 C 68.371 354.069, 91.376 337.271, 96.533 308.342 C 98.290 298.481, 98.290 293.519, 96.533 283.658 C 92.530 261.204, 77.218 245.002, 60 245.002 C 54.921 245.002, 52.188 245.625, 47.500 247.855 M 60.112 542.083 L 6.724 596 299.549 596 L 592.374 596 537.937 542.053 L 483.500 488.106 298.500 488.136 L 113.500 488.167 60.112 542.083" stroke="none" fill="#fbfbfb" fill-rule="evenodd"/></svg>