<svg xmlns="http://www.w3.org/2000/svg" width="600" height="600" viewBox="0 0 600 600" version="1.1"><path d="M 0 300.002 L 0 600.003 300.250 599.752 L 600.500 599.500 600.752 299.750 L 601.003 0 300.502 0 L 0 0 0 300.002 M 0.493 300.500 C 0.493 465.500, 0.609 532.851, 0.750 450.169 C 0.891 367.487, 0.891 232.487, 0.750 150.169 C 0.609 67.851, 0.493 135.500, 0.493 300.500 M 62 57.957 L 116.500 111.892 148.019 111.946 L 179.537 112 187.019 105.359 C 199.183 94.561, 228.210 69.688, 232.094 66.734 C 236.116 63.675, 238 63.276, 238 65.483 C 238 67.222, 233.152 81.429, 226.624 98.819 C 224.081 105.594, 222 111.332, 222 111.569 C 222 111.806, 281.512 111.958, 354.250 111.907 L 486.500 111.813 539.899 57.907 L 593.299 4 300.399 4.011 L 7.500 4.021 62 57.957 M 4 300.190 L 4 593.493 57.940 539.560 L 111.879 485.628 111.938 330.564 L 111.996 175.500 96.748 191.013 C 88.362 199.545, 75.172 213.157, 67.438 221.263 C 54.194 235.142, 51.040 237.726, 50.971 234.750 C 50.955 234.063, 64.682 220, 81.476 203.500 L 112.009 173.500 112.005 143.388 L 112 113.277 60.135 61.577 C 31.609 33.142, 7.309 9.204, 6.135 8.382 L 4 6.887 4 300.190 M 542.750 60.573 L 490 113.763 490 166.882 C 490 196.097, 490.337 220.008, 490.750 220.018 C 491.163 220.028, 496.225 220.721, 502 221.558 C 509.072 222.582, 515.928 222.887, 523 222.490 C 532.981 221.930, 537.607 222.738, 535.630 224.696 C 534.300 226.013, 510.775 225.240, 501.036 223.560 C 496.066 222.702, 491.549 222, 491 222 C 490.341 222, 490 253.878, 490 315.551 L 490 409.103 498.722 399.801 C 514.262 383.230, 531.454 365.864, 533.336 364.839 C 538.881 361.816, 534.108 367.378, 513.204 388.296 L 490 411.516 490.054 448.008 L 490.108 484.500 542.804 538.250 L 595.500 591.999 595.753 445.419 C 595.893 364.800, 595.893 233.261, 595.753 153.111 L 595.500 7.383 542.750 60.573 M 227.500 76.707 C 225.300 78.636, 215.175 86.992, 205 95.276 C 194.825 103.560, 186.073 110.712, 185.550 111.169 C 185.028 111.626, 192.129 112, 201.331 112 C 213.826 112, 218.169 111.683, 218.482 110.750 C 218.713 110.063, 221.815 101.404, 225.376 91.508 C 228.937 81.613, 231.771 73.445, 231.675 73.358 C 231.579 73.271, 229.700 74.778, 227.500 76.707 M 115 143.196 L 115 170.392 118.250 167.356 C 120.037 165.686, 125.100 160.944, 129.500 156.818 C 133.900 152.692, 145.713 142.031, 155.750 133.127 C 165.787 124.224, 174 116.728, 174 116.469 C 174 116.211, 160.725 116, 144.500 116 L 115 116 115 143.196 M 169 124.689 C 163.225 129.458, 148.713 142.070, 136.750 152.716 L 115 172.073 115 291.536 L 115 411 117.250 410.993 C 118.487 410.989, 126.700 408.479, 135.500 405.415 C 158.962 397.245, 174.656 394.686, 187.114 397.001 C 193.487 398.185, 195.994 400.681, 196.014 405.861 C 196.034 411.343, 196.987 413.854, 199.358 414.677 C 200.536 415.087, 220.625 415.456, 244 415.499 C 285.107 415.575, 286.746 415.651, 294 417.833 C 298.125 419.074, 303.750 421.596, 306.500 423.439 C 313.648 428.227, 322.409 430.031, 343.402 431.037 C 363.425 431.997, 374.959 433.382, 378.901 435.300 C 383.246 437.414, 382.424 445.048, 375.641 465.570 C 372.539 474.959, 370 482.946, 370 483.320 C 370 483.694, 378.362 484, 388.582 484 L 407.163 484 419.332 473.810 C 435.185 460.533, 463.868 434.983, 476.229 423.127 L 486 413.755 486 317.002 L 486 220.250 483.031 219.656 C 478.770 218.804, 475.983 215.629, 476.090 211.750 L 476.180 208.500 477.102 211.687 C 478.050 214.962, 482.209 219, 484.635 219 C 485.771 219, 486 210.350, 486 167.500 L 486 116 353.072 116 L 220.144 116 217.952 121.750 C 212.887 135.036, 206.894 153.492, 206.346 157.496 C 205.850 161.113, 206.071 161.967, 207.733 162.857 C 211.074 164.645, 221.632 165.912, 242 166.969 C 262.946 168.056, 273.355 169.763, 278.356 172.931 C 292.679 182.003, 293.745 182.152, 342.358 181.880 C 389.401 181.615, 389.989 181.696, 391.925 188.670 C 392.510 190.777, 392.991 193.974, 392.994 195.775 C 393.001 199.582, 394.390 200.350, 403.230 201.436 C 413.975 202.754, 426.833 200.437, 447.608 193.438 C 467.328 186.794, 471.875 185.940, 473.987 188.485 C 474.686 189.327, 475.367 193.761, 475.562 198.735 L 475.904 207.500 474.968 200.858 C 473.637 191.403, 472.549 189, 469.603 189 C 468.257 189, 459.414 191.682, 449.952 194.959 C 424.665 203.719, 406.877 205.991, 395.267 201.943 C 391.824 200.743, 390.017 196.768, 390.006 190.372 C 389.995 184.400, 390.794 184.502, 343.596 184.482 C 296.808 184.462, 294.752 184.257, 284 178.537 C 273.420 172.908, 270.886 171.990, 261.932 170.538 C 256.744 169.696, 248.225 168.992, 243 168.973 C 231.374 168.930, 211.496 166.649, 207.726 164.925 C 206.200 164.228, 204.689 162.610, 204.368 161.330 C 203.605 158.292, 206.189 147.893, 212.091 130.250 L 216.858 116 198.179 116.009 L 179.500 116.018 169 124.689 M 170.418 237.482 C 147.032 242.571, 130.373 261.972, 125.977 289.239 C 124.430 298.836, 125.196 319.153, 127.421 327.500 C 131.837 344.071, 142.811 358.983, 155.500 365.655 C 172.732 374.715, 194.861 375.241, 211.659 366.990 C 221.547 362.133, 231.829 349.497, 234.476 338.951 C 235.036 336.720, 234.529 336.186, 229.528 333.733 C 223.245 330.652, 222 330.421, 222 332.340 C 222 335.575, 215.537 346.237, 211.334 349.938 C 200.303 359.647, 180.535 361.569, 165.388 354.404 C 162.574 353.073, 157.942 349.518, 155.084 346.495 C 145.658 336.529, 142.046 324.757, 142.017 303.910 C 141.976 273.789, 152.967 256.091, 174.881 250.990 C 180.803 249.612, 195.048 250.137, 201.177 251.960 C 207.132 253.731, 214.175 259.103, 218.274 265 C 220.376 268.025, 222.509 270.645, 223.014 270.822 C 223.711 271.066, 229.735 267.506, 233.817 264.437 C 233.992 264.306, 232.952 261.865, 231.506 259.012 C 226.150 248.441, 214.709 240.318, 201.122 237.438 C 192.931 235.702, 178.504 235.723, 170.418 237.482 M 262 304.500 L 262 371 270 371 L 278 371 278 340.883 L 278 310.765 294.250 311.192 C 308.251 311.559, 311.054 311.907, 314.500 313.703 C 321.983 317.602, 323.241 320.027, 332.944 349.250 L 340.166 371 348.151 371 C 355.970 371, 356.120 370.954, 355.439 368.750 C 341.323 323.129, 337.259 313.999, 329.401 310.251 C 327.530 309.359, 326 308.121, 326 307.499 C 326 306.877, 328.415 305.367, 331.368 304.143 C 338.514 301.181, 344.481 295.911, 347.790 289.638 C 350.261 284.953, 350.500 283.530, 350.500 273.500 C 350.500 263.466, 350.253 261.997, 347.689 256.776 C 343.222 247.679, 334.761 241.580, 323.201 239.125 C 319.996 238.445, 306.855 238, 289.951 238 L 262 238 262 304.500 M 417 238.278 C 417 238.467, 406.650 268.248, 394 304.457 C 381.350 340.666, 371 370.469, 371 370.686 C 371 370.903, 374.652 370.950, 379.115 370.790 L 387.231 370.500 393.434 352.500 L 399.638 334.500 427.995 334.500 L 456.353 334.500 462.406 352.750 L 468.459 371 476.730 371 C 481.278 371, 484.986 370.663, 484.970 370.250 C 484.953 369.837, 474.650 340.025, 462.074 304 L 439.208 238.500 428.104 238.217 C 421.997 238.062, 417 238.089, 417 238.278 M 278 274.500 L 278 298 295.951 298 C 305.824 298, 316.226 297.501, 319.067 296.892 C 326.098 295.384, 331.490 290.457, 333.494 283.707 C 338.002 268.528, 331.746 254.827, 319.067 252.108 C 316.226 251.499, 305.824 251, 295.951 251 L 278 251 278 274.500 M 426.134 256.169 C 425.651 257.451, 420.486 272.563, 414.657 289.750 L 404.058 321 427.953 321 L 451.848 321 440.548 287.791 C 434.333 269.527, 428.745 254.415, 428.130 254.210 C 427.515 254.005, 426.617 254.887, 426.134 256.169 M 53.750 374.708 C 52.237 374.942, 51 375.497, 51 375.941 C 51 377.422, 57.345 378.046, 65.971 377.412 C 71.736 376.989, 77.579 377.290, 84 378.343 C 89.225 379.199, 95.525 380.200, 98 380.568 C 106.403 381.816, 109.135 384.449, 110.385 392.500 C 110.641 394.150, 110.725 393.133, 110.571 390.240 C 110.201 383.278, 108.480 381.605, 99.176 379.170 C 87.290 376.058, 61.445 373.520, 53.750 374.708 M 162.500 399.606 C 158.100 400.391, 146.707 403.725, 137.182 407.016 C 127.657 410.307, 118.770 413, 117.432 413 L 115 413 115 448.504 L 115 484.008 240.750 483.754 L 366.500 483.500 372.860 466 C 379.830 446.821, 381.555 437.811, 378.480 436.631 C 374.839 435.234, 361.903 433.905, 343 432.988 C 321.510 431.944, 312.755 430.181, 306.075 425.552 C 303.921 424.059, 298.635 421.698, 294.329 420.305 L 286.500 417.772 249.448 418.339 C 207.622 418.978, 199.741 418.401, 196.250 414.441 C 194.606 412.576, 193.996 410.624, 193.985 407.194 C 193.976 404.612, 193.560 401.852, 193.059 401.061 C 191.206 398.132, 175.072 397.364, 162.500 399.606 M 470 430.312 C 462.025 438.163, 446.500 452.624, 435.500 462.446 C 424.500 472.269, 414.613 481.137, 413.528 482.153 C 411.608 483.951, 412.538 484, 448.778 484 L 486 484 486 450 C 486 431.300, 485.663 416.008, 485.250 416.018 C 484.837 416.029, 477.975 422.461, 470 430.312 M 60.500 542 L 6.507 596 299.883 596 L 593.259 596 588.880 591.038 C 586.471 588.309, 562.900 564.044, 536.500 537.117 L 488.500 488.157 447.766 488.079 L 407.032 488 390.255 502.750 C 361.624 527.923, 351.810 536, 349.856 536 C 347.463 536, 349.740 527.928, 359.388 502.203 C 361.925 495.440, 364 489.477, 364 488.953 C 364 488.354, 317.641 488, 239.247 488 L 114.493 488 60.500 542 M 361.790 506.250 C 358.184 516.288, 354.871 525.384, 354.428 526.464 C 353.985 527.544, 357.420 525.057, 362.061 520.937 C 366.702 516.818, 377.363 507.885, 385.750 501.087 C 394.137 494.290, 401 488.564, 401 488.364 C 401 488.164, 393.653 488, 384.673 488 L 368.347 488 361.790 506.250" stroke="none" fill="#080808" fill-rule="evenodd"/><path d="M 62 57.957 L 116.500 111.892 148.019 111.946 L 179.537 112 187.019 105.359 C 199.183 94.561, 228.210 69.688, 232.094 66.734 C 236.116 63.675, 238 63.276, 238 65.483 C 238 67.222, 233.152 81.429, 226.624 98.819 C 224.081 105.594, 222 111.332, 222 111.569 C 222 111.806, 281.512 111.958, 354.250 111.907 L 486.500 111.813 539.899 57.907 L 593.299 4 300.399 4.011 L 7.500 4.021 62 57.957 M 4 300.190 L 4 593.493 57.940 539.560 L 111.879 485.628 111.938 330.564 L 111.996 175.500 96.748 191.013 C 88.362 199.545, 75.172 213.157, 67.438 221.263 C 54.194 235.142, 51.040 237.726, 50.971 234.750 C 50.955 234.063, 64.682 220, 81.476 203.500 L 112.009 173.500 112.005 143.388 L 112 113.277 60.135 61.577 C 31.609 33.142, 7.309 9.204, 6.135 8.382 L 4 6.887 4 300.190 M 542.750 60.573 L 490 113.763 490 166.882 C 490 196.097, 490.337 220.008, 490.750 220.018 C 491.163 220.028, 496.225 220.721, 502 221.558 C 509.072 222.582, 515.928 222.887, 523 222.490 C 532.981 221.930, 537.607 222.738, 535.630 224.696 C 534.300 226.013, 510.775 225.240, 501.036 223.560 C 496.066 222.702, 491.549 222, 491 222 C 490.341 222, 490 253.878, 490 315.551 L 490 409.103 498.722 399.801 C 514.262 383.230, 531.454 365.864, 533.336 364.839 C 538.881 361.816, 534.108 367.378, 513.204 388.296 L 490 411.516 490.054 448.008 L 490.108 484.500 542.804 538.250 L 595.500 591.999 595.753 445.419 C 595.893 364.800, 595.893 233.261, 595.753 153.111 L 595.500 7.383 542.750 60.573 M 227.500 76.707 C 225.300 78.636, 215.175 86.992, 205 95.276 C 194.825 103.560, 186.073 110.712, 185.550 111.169 C 185.028 111.626, 192.129 112, 201.331 112 C 213.826 112, 218.169 111.683, 218.482 110.750 C 218.713 110.063, 221.815 101.404, 225.376 91.508 C 228.937 81.613, 231.771 73.445, 231.675 73.358 C 231.579 73.271, 229.700 74.778, 227.500 76.707 M 115 143.196 L 115 170.392 118.250 167.356 C 120.037 165.686, 125.100 160.944, 129.500 156.818 C 133.900 152.692, 145.713 142.031, 155.750 133.127 C 165.787 124.224, 174 116.728, 174 116.469 C 174 116.211, 160.725 116, 144.500 116 L 115 116 115 143.196 M 169 124.689 C 163.225 129.458, 148.713 142.070, 136.750 152.716 L 115 172.073 115 291.536 L 115 411 117.250 410.993 C 118.487 410.989, 126.700 408.479, 135.500 405.415 C 158.962 397.245, 174.656 394.686, 187.114 397.001 C 193.487 398.185, 195.994 400.681, 196.014 405.861 C 196.034 411.343, 196.987 413.854, 199.358 414.677 C 200.536 415.087, 220.625 415.456, 244 415.499 C 285.107 415.575, 286.746 415.651, 294 417.833 C 298.125 419.074, 303.750 421.596, 306.500 423.439 C 313.648 428.227, 322.409 430.031, 343.402 431.037 C 363.425 431.997, 374.959 433.382, 378.901 435.300 C 383.246 437.414, 382.424 445.048, 375.641 465.570 C 372.539 474.959, 370 482.946, 370 483.320 C 370 483.694, 378.362 484, 388.582 484 L 407.163 484 419.332 473.810 C 435.185 460.533, 463.868 434.983, 476.229 423.127 L 486 413.755 486 317.002 L 486 220.250 483.031 219.656 C 478.770 218.804, 475.983 215.629, 476.090 211.750 L 476.180 208.500 477.102 211.687 C 478.050 214.962, 482.209 219, 484.635 219 C 485.771 219, 486 210.350, 486 167.500 L 486 116 353.072 116 L 220.144 116 217.952 121.750 C 212.887 135.036, 206.894 153.492, 206.346 157.496 C 205.850 161.113, 206.071 161.967, 207.733 162.857 C 211.074 164.645, 221.632 165.912, 242 166.969 C 262.946 168.056, 273.355 169.763, 278.356 172.931 C 292.679 182.003, 293.745 182.152, 342.358 181.880 C 389.401 181.615, 389.989 181.696, 391.925 188.670 C 392.510 190.777, 392.991 193.974, 392.994 195.775 C 393.001 199.582, 394.390 200.350, 403.230 201.436 C 413.975 202.754, 426.833 200.437, 447.608 193.438 C 467.328 186.794, 471.875 185.940, 473.987 188.485 C 474.686 189.327, 475.367 193.761, 475.562 198.735 L 475.904 207.500 474.968 200.858 C 473.637 191.403, 472.549 189, 469.603 189 C 468.257 189, 459.414 191.682, 449.952 194.959 C 424.665 203.719, 406.877 205.991, 395.267 201.943 C 391.824 200.743, 390.017 196.768, 390.006 190.372 C 389.995 184.400, 390.794 184.502, 343.596 184.482 C 296.808 184.462, 294.752 184.257, 284 178.537 C 273.420 172.908, 270.886 171.990, 261.932 170.538 C 256.744 169.696, 248.225 168.992, 243 168.973 C 231.374 168.930, 211.496 166.649, 207.726 164.925 C 206.200 164.228, 204.689 162.610, 204.368 161.330 C 203.605 158.292, 206.189 147.893, 212.091 130.250 L 216.858 116 198.179 116.009 L 179.500 116.018 169 124.689 M 170.418 237.482 C 147.032 242.571, 130.373 261.972, 125.977 289.239 C 124.430 298.836, 125.196 319.153, 127.421 327.500 C 131.837 344.071, 142.811 358.983, 155.500 365.655 C 172.732 374.715, 194.861 375.241, 211.659 366.990 C 221.547 362.133, 231.829 349.497, 234.476 338.951 C 235.036 336.720, 234.529 336.186, 229.528 333.733 C 223.245 330.652, 222 330.421, 222 332.340 C 222 335.575, 215.537 346.237, 211.334 349.938 C 200.303 359.647, 180.535 361.569, 165.388 354.404 C 162.574 353.073, 157.942 349.518, 155.084 346.495 C 145.658 336.529, 142.046 324.757, 142.017 303.910 C 141.976 273.789, 152.967 256.091, 174.881 250.990 C 180.803 249.612, 195.048 250.137, 201.177 251.960 C 207.132 253.731, 214.175 259.103, 218.274 265 C 220.376 268.025, 222.509 270.645, 223.014 270.822 C 223.711 271.066, 229.735 267.506, 233.817 264.437 C 233.992 264.306, 232.952 261.865, 231.506 259.012 C 226.150 248.441, 214.709 240.318, 201.122 237.438 C 192.931 235.702, 178.504 235.723, 170.418 237.482 M 262 304.500 L 262 371 270 371 L 278 371 278 340.883 L 278 310.765 294.250 311.192 C 308.251 311.559, 311.054 311.907, 314.500 313.703 C 321.983 317.602, 323.241 320.027, 332.944 349.250 L 340.166 371 348.151 371 C 355.970 371, 356.120 370.954, 355.439 368.750 C 341.323 323.129, 337.259 313.999, 329.401 310.251 C 327.530 309.359, 326 308.121, 326 307.499 C 326 306.877, 328.415 305.367, 331.368 304.143 C 338.514 301.181, 344.481 295.911, 347.790 289.638 C 350.261 284.953, 350.500 283.530, 350.500 273.500 C 350.500 263.466, 350.253 261.997, 347.689 256.776 C 343.222 247.679, 334.761 241.580, 323.201 239.125 C 319.996 238.445, 306.855 238, 289.951 238 L 262 238 262 304.500 M 417 238.278 C 417 238.467, 406.650 268.248, 394 304.457 C 381.350 340.666, 371 370.469, 371 370.686 C 371 370.903, 374.652 370.950, 379.115 370.790 L 387.231 370.500 393.434 352.500 L 399.638 334.500 427.995 334.500 L 456.353 334.500 462.406 352.750 L 468.459 371 476.730 371 C 481.278 371, 484.986 370.663, 484.970 370.250 C 484.953 369.837, 474.650 340.025, 462.074 304 L 439.208 238.500 428.104 238.217 C 421.997 238.062, 417 238.089, 417 238.278 M 278 274.500 L 278 298 295.951 298 C 305.824 298, 316.226 297.501, 319.067 296.892 C 326.098 295.384, 331.490 290.457, 333.494 283.707 C 338.002 268.528, 331.746 254.827, 319.067 252.108 C 316.226 251.499, 305.824 251, 295.951 251 L 278 251 278 274.500 M 426.134 256.169 C 425.651 257.451, 420.486 272.563, 414.657 289.750 L 404.058 321 427.953 321 L 451.848 321 440.548 287.791 C 434.333 269.527, 428.745 254.415, 428.130 254.210 C 427.515 254.005, 426.617 254.887, 426.134 256.169 M 53.750 374.708 C 52.237 374.942, 51 375.497, 51 375.941 C 51 377.422, 57.345 378.046, 65.971 377.412 C 71.736 376.989, 77.579 377.290, 84 378.343 C 89.225 379.199, 95.525 380.200, 98 380.568 C 106.403 381.816, 109.135 384.449, 110.385 392.500 C 110.641 394.150, 110.725 393.133, 110.571 390.240 C 110.201 383.278, 108.480 381.605, 99.176 379.170 C 87.290 376.058, 61.445 373.520, 53.750 374.708 M 162.500 399.606 C 158.100 400.391, 146.707 403.725, 137.182 407.016 C 127.657 410.307, 118.770 413, 117.432 413 L 115 413 115 448.504 L 115 484.008 240.750 483.754 L 366.500 483.500 372.860 466 C 379.830 446.821, 381.555 437.811, 378.480 436.631 C 374.839 435.234, 361.903 433.905, 343 432.988 C 321.510 431.944, 312.755 430.181, 306.075 425.552 C 303.921 424.059, 298.635 421.698, 294.329 420.305 L 286.500 417.772 249.448 418.339 C 207.622 418.978, 199.741 418.401, 196.250 414.441 C 194.606 412.576, 193.996 410.624, 193.985 407.194 C 193.976 404.612, 193.560 401.852, 193.059 401.061 C 191.206 398.132, 175.072 397.364, 162.500 399.606 M 470 430.312 C 462.025 438.163, 446.500 452.624, 435.500 462.446 C 424.500 472.269, 414.613 481.137, 413.528 482.153 C 411.608 483.951, 412.538 484, 448.778 484 L 486 484 486 450 C 486 431.300, 485.663 416.008, 485.250 416.018 C 484.837 416.029, 477.975 422.461, 470 430.312 M 60.500 542 L 6.507 596 299.883 596 L 593.259 596 588.880 591.038 C 586.471 588.309, 562.900 564.044, 536.500 537.117 L 488.500 488.157 447.766 488.079 L 407.032 488 390.255 502.750 C 361.624 527.923, 351.810 536, 349.856 536 C 347.463 536, 349.740 527.928, 359.388 502.203 C 361.925 495.440, 364 489.477, 364 488.953 C 364 488.354, 317.641 488, 239.247 488 L 114.493 488 60.500 542 M 361.790 506.250 C 358.184 516.288, 354.871 525.384, 354.428 526.464 C 353.985 527.544, 357.420 525.057, 362.061 520.937 C 366.702 516.818, 377.363 507.885, 385.750 501.087 C 394.137 494.290, 401 488.564, 401 488.364 C 401 488.164, 393.653 488, 384.673 488 L 368.347 488 361.790 506.250" stroke="none" fill="#fbfbfb" fill-rule="evenodd"/></svg>