<svg xmlns="http://www.w3.org/2000/svg" width="600" height="600" viewBox="0 0 600 600" version="1.1"><path d="M 0 300.002 L 0 600.003 300.250 599.752 L 600.500 599.500 600.752 299.750 L 601.003 0 300.502 0 L 0 0 0 300.002 M 0.493 300.500 C 0.493 465.500, 0.609 532.851, 0.750 450.169 C 0.891 367.487, 0.891 232.487, 0.750 150.169 C 0.609 67.851, 0.493 135.500, 0.493 300.500 M 60.264 56.965 L 113.500 109.931 298.877 109.965 L 484.254 110 526.746 68.250 C 550.116 45.287, 574.472 21.459, 580.869 15.299 L 592.500 4.097 299.764 4.049 L 7.027 4 60.264 56.965 M 4.008 299.571 L 4.016 592.500 57.954 538 L 111.892 483.500 111.946 298.861 C 111.997 124.374, 111.904 114.115, 110.250 112.285 C 109.288 111.220, 84.987 87.014, 56.250 58.495 L 4 6.642 4.008 299.571 M 541.641 59.250 L 488.088 111.500 488.044 298.503 L 488 485.507 542 539.500 L 596 593.493 596 300.247 C 596 138.961, 595.819 7, 595.597 7 C 595.375 7, 571.095 30.513, 541.641 59.250 M 289.500 19.541 C 273.446 23.007, 258.588 33.224, 252.356 45.084 C 249.807 49.933, 249.510 51.494, 249.510 60 C 249.510 68.506, 249.807 70.067, 252.356 74.916 C 261.294 91.925, 284.942 103.298, 307.965 101.662 C 324.694 100.473, 337.773 95.132, 347.548 85.500 C 356.365 76.812, 358.500 71.841, 358.500 60 C 358.500 48.159, 356.365 43.188, 347.548 34.500 C 340.999 28.046, 332.401 23.264, 322.433 20.531 C 313.837 18.174, 298.033 17.699, 289.500 19.541 M 291.199 23.504 C 281.685 25.227, 270.307 30.698, 264.038 36.561 C 245.305 54.083, 251.040 79.569, 276.428 91.626 C 283.960 95.203, 295.887 97.930, 304 97.930 C 318.186 97.930, 335 91.803, 344.126 83.309 C 362.754 65.970, 356.912 40.408, 331.572 28.374 C 319.312 22.551, 305.589 20.896, 291.199 23.504 M 115 299 L 115 484 300 484 L 485 484 485 299 L 485 114 300 114 L 115 114 115 299 M 63.838 537.360 C 37.074 564.387, 13.298 588.638, 11.003 591.250 L 6.830 596 300.162 596 L 593.493 596 539.500 542 L 485.507 488 299.003 488.110 L 112.500 488.220 63.838 537.360" stroke="none" fill="#060606" fill-rule="evenodd"/><path d="M 60.264 56.965 L 113.500 109.931 298.877 109.965 L 484.254 110 526.746 68.250 C 550.116 45.287, 574.472 21.459, 580.869 15.299 L 592.500 4.097 299.764 4.049 L 7.027 4 60.264 56.965 M 4.008 299.571 L 4.016 592.500 57.954 538 L 111.892 483.500 111.946 298.861 C 111.997 124.374, 111.904 114.115, 110.250 112.285 C 109.288 111.220, 84.987 87.014, 56.250 58.495 L 4 6.642 4.008 299.571 M 541.641 59.250 L 488.088 111.500 488.044 298.503 L 488 485.507 542 539.500 L 596 593.493 596 300.247 C 596 138.961, 595.819 7, 595.597 7 C 595.375 7, 571.095 30.513, 541.641 59.250 M 289.500 19.541 C 273.446 23.007, 258.588 33.224, 252.356 45.084 C 249.807 49.933, 249.510 51.494, 249.510 60 C 249.510 68.506, 249.807 70.067, 252.356 74.916 C 261.294 91.925, 284.942 103.298, 307.965 101.662 C 324.694 100.473, 337.773 95.132, 347.548 85.500 C 356.365 76.812, 358.500 71.841, 358.500 60 C 358.500 48.159, 356.365 43.188, 347.548 34.500 C 340.999 28.046, 332.401 23.264, 322.433 20.531 C 313.837 18.174, 298.033 17.699, 289.500 19.541 M 291.199 23.504 C 281.685 25.227, 270.307 30.698, 264.038 36.561 C 245.305 54.083, 251.040 79.569, 276.428 91.626 C 283.960 95.203, 295.887 97.930, 304 97.930 C 318.186 97.930, 335 91.803, 344.126 83.309 C 362.754 65.970, 356.912 40.408, 331.572 28.374 C 319.312 22.551, 305.589 20.896, 291.199 23.504 M 115 299 L 115 484 300 484 L 485 484 485 299 L 485 114 300 114 L 115 114 115 299 M 63.838 537.360 C 37.074 564.387, 13.298 588.638, 11.003 591.250 L 6.830 596 300.162 596 L 593.493 596 539.500 542 L 485.507 488 299.003 488.110 L 112.500 488.220 63.838 537.360" stroke="none" fill="#fbfbfb" fill-rule="evenodd"/></svg>