<svg xmlns="http://www.w3.org/2000/svg" width="600" height="600" viewBox="0 0 600 600" version="1.1">
    <path
        d="M 0 300.002 L 0 600.003 300.250 599.752 L 600.500 599.500 600.752 299.750 L 601.003 0 300.502 0 L 0 0 0 300.002 M 0.493 300.500 C 0.493 465.500, 0.609 532.851, 0.750 450.169 C 0.891 367.487, 0.891 232.487, 0.750 150.169 C 0.609 67.851, 0.493 135.500, 0.493 300.500 M 62 57.957 L 116.500 111.892 200.750 111.946 L 285 112 285 58 L 285 4 146.250 4.011 L 7.500 4.021 62 57.957 M 315 58 L 315 112 400.750 111.907 L 486.500 111.813 539.899 57.907 L 593.299 4 454.149 4 L 315 4 315 58 M 4 300.190 L 4 593.493 58 539.500 L 112 485.507 112 299.392 L 112 113.277 60.135 61.577 C 31.609 33.142, 7.309 9.204, 6.135 8.382 L 4 6.887 4 300.190 M 542.750 60.573 L 490 113.763 490.054 299.132 L 490.108 484.500 542.804 538.250 L 595.500 591.999 595.753 445.419 C 595.893 364.800, 595.893 233.261, 595.753 153.111 L 595.500 7.383 542.750 60.573 M 115 300 L 115 484 200 484 L 285 484 285 300 L 285 116 200 116 L 115 116 115 300 M 315 300 L 315 484 400.500 484 L 486 484 486 300 L 486 116 400.500 116 L 315 116 315 300 M 60.500 542 L 6.507 596 145.753 596 L 285 596 285 542 L 285 488 199.747 488 L 114.493 488 60.500 542 M 315 542 L 315 596 454.130 596 L 593.259 596 588.880 591.038 C 586.471 588.309, 562.900 564.044, 536.500 537.117 L 488.500 488.157 401.750 488.079 L 315 488 315 542"
        stroke="none" fill="#040404" fill-rule="evenodd" />
    <path
        d="M 62 57.957 L 116.500 111.892 200.750 111.946 L 285 112 285 58 L 285 4 146.250 4.011 L 7.500 4.021 62 57.957 M 315 58 L 315 112 400.750 111.907 L 486.500 111.813 539.899 57.907 L 593.299 4 454.149 4 L 315 4 315 58 M 4 300.190 L 4 593.493 58 539.500 L 112 485.507 112 299.392 L 112 113.277 60.135 61.577 C 31.609 33.142, 7.309 9.204, 6.135 8.382 L 4 6.887 4 300.190 M 542.750 60.573 L 490 113.763 490.054 299.132 L 490.108 484.500 542.804 538.250 L 595.500 591.999 595.753 445.419 C 595.893 364.800, 595.893 233.261, 595.753 153.111 L 595.500 7.383 542.750 60.573 M 115 300 L 115 484 200 484 L 285 484 285 300 L 285 116 200 116 L 115 116 115 300 M 315 300 L 315 484 400.500 484 L 486 484 486 300 L 486 116 400.500 116 L 315 116 315 300 M 60.500 542 L 6.507 596 145.753 596 L 285 596 285 542 L 285 488 199.747 488 L 114.493 488 60.500 542 M 315 542 L 315 596 454.130 596 L 593.259 596 588.880 591.038 C 586.471 588.309, 562.900 564.044, 536.500 537.117 L 488.500 488.157 401.750 488.079 L 315 488 315 542"
        stroke="none" fill="#fbfbfb" fill-rule="evenodd" />
</svg>