<svg xmlns="http://www.w3.org/2000/svg" width="600" height="600" viewBox="0 0 600 600" version="1.1"><path d="M 0 300 L 0 600 130.885 600 L 261.770 600 262.486 594.268 C 263.695 584.590, 266.723 578.117, 272.958 571.882 C 279.743 565.097, 284.559 562.499, 293.361 560.877 C 298.595 559.913, 301.405 559.913, 306.639 560.877 C 315.441 562.499, 320.257 565.097, 327.042 571.882 C 333.277 578.117, 336.305 584.590, 337.515 594.271 L 338.231 600.007 469.366 599.754 L 600.500 599.500 600.752 299.750 L 601.003 0 300.502 0 L 0 0 0 300 M 0.493 300.500 C 0.493 465.500, 0.609 532.851, 0.750 450.169 C 0.891 367.487, 0.891 232.487, 0.750 150.169 C 0.609 67.851, 0.493 135.500, 0.493 300.500 M 62 57.957 L 116.500 111.892 301.500 111.853 L 486.500 111.813 539.899 57.907 L 593.299 4 300.399 4.011 L 7.500 4.021 62 57.957 M 4 300.190 L 4 593.493 58 539.500 L 112 485.507 112 299.392 L 112 113.277 60.135 61.577 C 31.609 33.142, 7.309 9.204, 6.135 8.382 L 4 6.887 4 300.190 M 542.750 60.573 L 490 113.763 490.054 299.132 L 490.108 484.500 542.804 538.250 L 595.500 591.999 595.753 445.419 C 595.893 364.800, 595.893 233.261, 595.753 153.111 L 595.500 7.383 542.750 60.573 M 115 300 L 115 484 300.500 484 L 486 484 486 300 L 486 116 300.500 116 L 115 116 115 300 M 60.500 542 L 6.507 596 132.234 596 L 257.962 596 258.539 593.250 C 260.518 583.813, 261.389 581.058, 263.589 577.283 C 272.172 562.550, 290.431 553.891, 306.622 556.875 C 323.799 560.040, 337.123 572.531, 340.491 588.626 C 341.247 592.242, 342.048 595.381, 342.270 595.604 C 342.493 595.826, 399.109 595.894, 468.085 595.754 L 593.495 595.500 540.997 541.827 L 488.500 488.153 301.497 488.077 L 114.493 488 60.500 542" stroke="none" fill="#050505" fill-rule="evenodd"/><path d="M 62 57.957 L 116.500 111.892 301.500 111.853 L 486.500 111.813 539.899 57.907 L 593.299 4 300.399 4.011 L 7.500 4.021 62 57.957 M 4 300.190 L 4 593.493 58 539.500 L 112 485.507 112 299.392 L 112 113.277 60.135 61.577 C 31.609 33.142, 7.309 9.204, 6.135 8.382 L 4 6.887 4 300.190 M 542.750 60.573 L 490 113.763 490.054 299.132 L 490.108 484.500 542.804 538.250 L 595.500 591.999 595.753 445.419 C 595.893 364.800, 595.893 233.261, 595.753 153.111 L 595.500 7.383 542.750 60.573 M 115 300 L 115 484 300.500 484 L 486 484 486 300 L 486 116 300.500 116 L 115 116 115 300 M 60.500 542 L 6.507 596 132.234 596 L 257.962 596 258.539 593.250 C 260.518 583.813, 261.389 581.058, 263.589 577.283 C 272.172 562.550, 290.431 553.891, 306.622 556.875 C 323.799 560.040, 337.123 572.531, 340.491 588.626 C 341.247 592.242, 342.048 595.381, 342.270 595.604 C 342.493 595.826, 399.109 595.894, 468.085 595.754 L 593.495 595.500 540.997 541.827 L 488.500 488.153 301.497 488.077 L 114.493 488 60.500 542 M 290.500 561.406 C 283.237 563.201, 279.267 565.573, 272.944 571.896 C 266.724 578.116, 263.694 584.598, 262.486 594.268 L 261.770 600 300 600 L 338.230 600 337.514 594.268 C 336.305 584.590, 333.277 578.117, 327.042 571.882 C 320.649 565.489, 315.838 562.742, 308.201 561.123 C 301.645 559.734, 296.964 559.808, 290.500 561.406" stroke="none" fill="#fbfbfb" fill-rule="evenodd"/></svg>