<svg xmlns="http://www.w3.org/2000/svg" width="600" height="600" viewBox="0 0 600 600" version="1.1"><path d="M 0 300.002 L 0 600.003 300.250 599.752 L 600.500 599.500 600.752 299.750 L 601.003 0 300.502 0 L 0 0 0 300.002 M 0.493 300.500 C 0.493 465.500, 0.609 532.851, 0.750 450.169 C 0.891 367.487, 0.891 232.487, 0.750 150.169 C 0.609 67.851, 0.493 135.500, 0.493 300.500 M 62 57.957 L 116.500 111.892 301.500 111.853 L 486.500 111.813 539.899 57.907 L 593.299 4 300.399 4.011 L 7.500 4.021 62 57.957 M 4 300.190 L 4 593.493 58 539.500 L 112 485.507 112 299.392 L 112 113.277 60.135 61.577 C 31.609 33.142, 7.309 9.204, 6.135 8.382 L 4 6.887 4 300.190 M 542.750 60.573 L 490 113.763 490.054 299.132 L 490.108 484.500 542.804 538.250 L 595.500 591.999 595.753 445.419 C 595.893 364.800, 595.893 233.261, 595.753 153.111 L 595.500 7.383 542.750 60.573 M 115 300 L 115 484 300.500 484 L 486 484 486 300 L 486 116 300.500 116 L 115 116 115 300 M 531 249.877 C 517.043 254.461, 505.118 268.547, 500.421 286 C 498.014 294.940, 497.996 313.226, 500.385 322 C 503.210 332.375, 507.910 340.885, 514.500 347.560 C 523.197 356.368, 528.166 358.500, 540 358.500 C 551.841 358.500, 556.812 356.365, 565.500 347.548 C 576.324 336.564, 581.338 322.778, 581.338 304 C 581.338 285.683, 576.113 271.327, 565.487 260.442 C 558.023 252.797, 551.385 249.730, 541.500 249.357 C 537.100 249.192, 532.375 249.426, 531 249.877 M 527.370 255.935 C 515.484 261.948, 506.322 275.641, 503.467 291.658 C 501.710 301.519, 501.710 306.481, 503.467 316.342 C 508.624 345.271, 531.629 362.069, 552.500 352.145 C 567.064 345.220, 577.930 324.648, 577.930 304 C 577.930 289.990, 571.798 272.974, 563.583 264.192 C 556.789 256.929, 550.210 253.733, 541.038 253.239 C 534.167 252.869, 532.958 253.108, 527.370 255.935 M 60.500 542 L 6.507 596 299.883 596 L 593.259 596 588.880 591.038 C 586.471 588.309, 562.900 564.044, 536.500 537.117 L 488.500 488.157 301.497 488.079 L 114.493 488 60.500 542" stroke="none" fill="#060606" fill-rule="evenodd"/><path d="M 62 57.957 L 116.500 111.892 301.500 111.853 L 486.500 111.813 539.899 57.907 L 593.299 4 300.399 4.011 L 7.500 4.021 62 57.957 M 4 300.190 L 4 593.493 58 539.500 L 112 485.507 112 299.392 L 112 113.277 60.135 61.577 C 31.609 33.142, 7.309 9.204, 6.135 8.382 L 4 6.887 4 300.190 M 542.750 60.573 L 490 113.763 490.054 299.132 L 490.108 484.500 542.804 538.250 L 595.500 591.999 595.753 445.419 C 595.893 364.800, 595.893 233.261, 595.753 153.111 L 595.500 7.383 542.750 60.573 M 115 300 L 115 484 300.500 484 L 486 484 486 300 L 486 116 300.500 116 L 115 116 115 300 M 531 249.877 C 517.043 254.461, 505.118 268.547, 500.421 286 C 498.014 294.940, 497.996 313.226, 500.385 322 C 503.210 332.375, 507.910 340.885, 514.500 347.560 C 523.197 356.368, 528.166 358.500, 540 358.500 C 551.841 358.500, 556.812 356.365, 565.500 347.548 C 576.324 336.564, 581.338 322.778, 581.338 304 C 581.338 285.683, 576.113 271.327, 565.487 260.442 C 558.023 252.797, 551.385 249.730, 541.500 249.357 C 537.100 249.192, 532.375 249.426, 531 249.877 M 527.370 255.935 C 515.484 261.948, 506.322 275.641, 503.467 291.658 C 501.710 301.519, 501.710 306.481, 503.467 316.342 C 508.624 345.271, 531.629 362.069, 552.500 352.145 C 567.064 345.220, 577.930 324.648, 577.930 304 C 577.930 289.990, 571.798 272.974, 563.583 264.192 C 556.789 256.929, 550.210 253.733, 541.038 253.239 C 534.167 252.869, 532.958 253.108, 527.370 255.935 M 60.500 542 L 6.507 596 299.883 596 L 593.259 596 588.880 591.038 C 586.471 588.309, 562.900 564.044, 536.500 537.117 L 488.500 488.157 301.497 488.079 L 114.493 488 60.500 542" stroke="none" fill="#fbfbfb" fill-rule="evenodd"/></svg>