<svg xmlns="http://www.w3.org/2000/svg" width="600" height="600" viewBox="0 0 600 600" version="1.1"><path d="M 0 300.002 L 0 600.003 300.250 599.752 L 600.500 599.500 600.752 299.750 L 601.003 0 469.608 -0 L 338.214 -0 337.134 6.127 C 335.635 14.642, 332.495 20.633, 326.398 26.616 C 320.308 32.592, 314.639 35.580, 306.551 37.075 C 294.592 39.286, 283.079 35.767, 274.250 27.202 C 267.582 20.734, 264.421 14.916, 262.781 6.096 L 261.647 -0 130.823 -0 L 0 0 0 300.002 M 0.493 300.500 C 0.493 465.500, 0.609 532.851, 0.750 450.169 C 0.891 367.487, 0.891 232.487, 0.750 150.169 C 0.609 67.851, 0.493 135.500, 0.493 300.500 M 62 57.957 L 116.500 111.892 301.500 111.853 L 486.500 111.813 539.899 57.907 L 593.299 4 467.281 4 L 341.263 4 340.727 7.997 C 339.886 14.268, 334.708 24.058, 329.534 29.162 C 312.788 45.680, 287.602 45.797, 270.788 29.436 C 265.274 24.070, 260.149 14.528, 259.273 7.997 L 258.737 4 133.118 4.011 L 7.500 4.021 62 57.957 M 4 300.190 L 4 593.493 58 539.500 L 112 485.507 112 299.392 L 112 113.277 60.135 61.577 C 31.609 33.142, 7.309 9.204, 6.135 8.382 L 4 6.887 4 300.190 M 542.750 60.573 L 490 113.763 490.054 299.132 L 490.108 484.500 542.804 538.250 L 595.500 591.999 595.753 445.419 C 595.893 364.800, 595.893 233.261, 595.753 153.111 L 595.500 7.383 542.750 60.573 M 115 300 L 115 484 300.500 484 L 486 484 486 300 L 486 116 300.500 116 L 115 116 115 300 M 60.500 542 L 6.507 596 299.883 596 L 593.259 596 588.880 591.038 C 586.471 588.309, 562.900 564.044, 536.500 537.117 L 488.500 488.157 301.497 488.079 L 114.493 488 60.500 542" stroke="none" fill="#050505" fill-rule="evenodd"/><path d="M 262 1.790 C 262 5.909, 265.315 15.815, 268.194 20.303 C 272.243 26.612, 280.652 33.379, 287.238 35.628 C 293.928 37.912, 306.739 37.899, 312.938 35.601 C 325.811 30.830, 335.334 18.830, 337.419 4.750 L 338.123 0 300.061 0 C 264.156 0, 262 0.101, 262 1.790 M 62 57.957 L 116.500 111.892 301.500 111.853 L 486.500 111.813 539.899 57.907 L 593.299 4 467.281 4 L 341.263 4 340.727 7.997 C 339.886 14.268, 334.708 24.058, 329.534 29.162 C 312.788 45.680, 287.602 45.797, 270.788 29.436 C 265.274 24.070, 260.149 14.528, 259.273 7.997 L 258.737 4 133.118 4.011 L 7.500 4.021 62 57.957 M 4 300.190 L 4 593.493 58 539.500 L 112 485.507 112 299.392 L 112 113.277 60.135 61.577 C 31.609 33.142, 7.309 9.204, 6.135 8.382 L 4 6.887 4 300.190 M 542.750 60.573 L 490 113.763 490.054 299.132 L 490.108 484.500 542.804 538.250 L 595.500 591.999 595.753 445.419 C 595.893 364.800, 595.893 233.261, 595.753 153.111 L 595.500 7.383 542.750 60.573 M 115 300 L 115 484 300.500 484 L 486 484 486 300 L 486 116 300.500 116 L 115 116 115 300 M 60.500 542 L 6.507 596 299.883 596 L 593.259 596 588.880 591.038 C 586.471 588.309, 562.900 564.044, 536.500 537.117 L 488.500 488.157 301.497 488.079 L 114.493 488 60.500 542" stroke="none" fill="#fbfbfb" fill-rule="evenodd"/></svg>