<svg xmlns="http://www.w3.org/2000/svg" width="600" height="600" viewBox="0 0 600 600" version="1.1"><path d="M 0 300.002 L 0 600.003 300.250 599.752 L 600.500 599.500 600.752 299.750 L 601.003 0 300.502 0 L 0 0 0 300.002 M 0.493 300.500 C 0.493 465.500, 0.609 532.851, 0.750 450.169 C 0.891 367.487, 0.891 232.487, 0.750 150.169 C 0.609 67.851, 0.493 135.500, 0.493 300.500 M 62 57.957 L 116.500 111.892 301.500 111.853 L 486.500 111.813 539.899 57.907 L 593.299 4 300.399 4.011 L 7.500 4.021 62 57.957 M 4 300.190 L 4 593.493 58 539.500 L 112 485.507 112 299.392 L 112 113.277 60.135 61.577 C 31.609 33.142, 7.309 9.204, 6.135 8.382 L 4 6.887 4 300.190 M 542.750 60.573 L 490 113.763 490.054 299.132 L 490.108 484.500 542.804 538.250 L 595.500 591.999 595.753 445.419 C 595.893 364.800, 595.893 233.261, 595.753 153.111 L 595.500 7.383 542.750 60.573 M 115 300 L 115 484 300.500 484 L 486 484 486 300 L 486 116 300.500 116 L 115 116 115 300 M 284.342 211.411 C 268.600 214.418, 255.864 220.380, 242.937 230.793 C 232.995 238.802, 225.503 248.274, 219.442 260.500 C 212.544 274.413, 210.697 282.729, 210.665 300 C 210.643 311.895, 211.033 315.937, 212.835 322.500 C 221.558 354.267, 245.785 378.484, 277.500 387.137 C 288.969 390.266, 311.031 390.266, 322.500 387.137 C 354.222 378.482, 378.529 354.178, 387.144 322.500 C 390.246 311.093, 390.259 288.995, 387.170 277.500 C 384.396 267.178, 377.515 253.356, 370.743 244.500 C 360.046 230.513, 340.072 217.440, 322.500 212.924 C 312.167 210.269, 294.074 209.551, 284.342 211.411 M 287.315 214.938 C 253.838 220.284, 227.364 243.592, 217.390 276.500 C 214.959 284.521, 214.662 287.077, 214.662 300 C 214.662 312.867, 214.964 315.490, 217.340 323.297 C 223.076 342.136, 232.721 356.493, 247.070 367.548 C 278.872 392.051, 321.128 392.051, 352.930 367.548 C 367.279 356.493, 376.924 342.136, 382.660 323.297 C 385.036 315.490, 385.338 312.867, 385.338 300 C 385.338 287.077, 385.041 284.521, 382.610 276.500 C 371.534 239.958, 340.788 215.865, 303.500 214.509 C 297.450 214.289, 290.167 214.482, 287.315 214.938 M 60.500 542 L 6.507 596 299.883 596 L 593.259 596 588.880 591.038 C 586.471 588.309, 562.900 564.044, 536.500 537.117 L 488.500 488.157 301.497 488.079 L 114.493 488 60.500 542" stroke="none" fill="#070707" fill-rule="evenodd"/><path d="M 62 57.957 L 116.500 111.892 301.500 111.853 L 486.500 111.813 539.899 57.907 L 593.299 4 300.399 4.011 L 7.500 4.021 62 57.957 M 4 300.190 L 4 593.493 58 539.500 L 112 485.507 112 299.392 L 112 113.277 60.135 61.577 C 31.609 33.142, 7.309 9.204, 6.135 8.382 L 4 6.887 4 300.190 M 542.750 60.573 L 490 113.763 490.054 299.132 L 490.108 484.500 542.804 538.250 L 595.500 591.999 595.753 445.419 C 595.893 364.800, 595.893 233.261, 595.753 153.111 L 595.500 7.383 542.750 60.573 M 115 300 L 115 484 300.500 484 L 486 484 486 300 L 486 116 300.500 116 L 115 116 115 300 M 284.342 211.411 C 268.600 214.418, 255.864 220.380, 242.937 230.793 C 232.995 238.802, 225.503 248.274, 219.442 260.500 C 212.544 274.413, 210.697 282.729, 210.665 300 C 210.643 311.895, 211.033 315.937, 212.835 322.500 C 221.558 354.267, 245.785 378.484, 277.500 387.137 C 288.969 390.266, 311.031 390.266, 322.500 387.137 C 354.222 378.482, 378.529 354.178, 387.144 322.500 C 390.246 311.093, 390.259 288.995, 387.170 277.500 C 384.396 267.178, 377.515 253.356, 370.743 244.500 C 360.046 230.513, 340.072 217.440, 322.500 212.924 C 312.167 210.269, 294.074 209.551, 284.342 211.411 M 287.315 214.938 C 253.838 220.284, 227.364 243.592, 217.390 276.500 C 214.959 284.521, 214.662 287.077, 214.662 300 C 214.662 312.867, 214.964 315.490, 217.340 323.297 C 223.076 342.136, 232.721 356.493, 247.070 367.548 C 278.872 392.051, 321.128 392.051, 352.930 367.548 C 367.279 356.493, 376.924 342.136, 382.660 323.297 C 385.036 315.490, 385.338 312.867, 385.338 300 C 385.338 287.077, 385.041 284.521, 382.610 276.500 C 371.534 239.958, 340.788 215.865, 303.500 214.509 C 297.450 214.289, 290.167 214.482, 287.315 214.938 M 60.500 542 L 6.507 596 299.883 596 L 593.259 596 588.880 591.038 C 586.471 588.309, 562.900 564.044, 536.500 537.117 L 488.500 488.157 301.497 488.079 L 114.493 488 60.500 542" stroke="none" fill="#fbfbfb" fill-rule="evenodd"/></svg>