<svg xmlns="http://www.w3.org/2000/svg" width="600" height="600" viewBox="0 0 600 600" version="1.1"><path d="M 0.996 1.248 C 0.992 2.402, 0.994 597.562, 0.998 599.250 C 0.999 599.663, 135.775 600, 300.500 600 C 539.432 600, 600 599.747, 600.002 598.750 C 600.003 598.063, 600.006 463.175, 600.010 299 L 600.017 0.500 300.508 0.248 C 61.226 0.047, 0.999 0.248, 0.996 1.248 M 5.456 5.861 C 5.781 6.885, 29.809 72.923, 58.851 152.611 L 111.655 297.500 299.606 297.753 L 487.556 298.005 541.278 151.636 C 570.825 71.133, 595 4.982, 595 4.633 C 595 4.285, 462.220 4, 299.933 4 C 12.643 4, 4.881 4.049, 5.456 5.861 M 4.030 299.950 C 4.014 456.787, 4.382 583.974, 4.852 583.450 C 5.321 582.928, 28.768 518.938, 56.957 441.252 L 108.209 300.003 56.983 159.252 C 28.808 81.838, 5.375 17.825, 4.909 17 C 4.442 16.175, 4.047 143.503, 4.030 299.950 M 543.342 157.795 L 491.185 300.021 543.342 442.574 L 595.500 585.128 595.753 443.145 C 595.893 365.054, 595.893 236.903, 595.753 158.365 L 595.500 15.569 543.342 157.795 M 43.659 264.198 C 32.259 265.667, 21.294 273.867, 16.204 284.730 C 13.858 289.735, 13.500 291.763, 13.500 300.026 C 13.500 308.918, 13.733 310.017, 17 316.526 C 21.057 324.609, 29.207 331.912, 37.097 334.532 C 43.232 336.570, 55.768 336.570, 61.903 334.532 C 69.795 331.911, 77.944 324.609, 82 316.524 C 85.267 310.013, 85.500 308.912, 85.500 300.024 C 85.500 291.763, 85.141 289.735, 82.796 284.730 C 79.661 278.040, 72.313 270.472, 65.832 267.257 C 60.168 264.448, 51.258 263.219, 43.659 264.198 M 42 268.372 C 33.004 270.341, 24.812 276.768, 20.168 285.500 C 17.827 289.902, 17.510 291.636, 17.510 300 C 17.510 308.350, 17.831 310.110, 20.165 314.540 C 23.427 320.731, 30.593 327.490, 36.808 330.239 C 43.297 333.109, 55.703 333.109, 62.192 330.239 C 68.407 327.490, 75.573 320.731, 78.835 314.540 C 81.169 310.110, 81.490 308.350, 81.490 300 C 81.490 291.636, 81.173 289.902, 78.832 285.500 C 73.946 276.312, 65.350 269.878, 55.566 268.087 C 48.664 266.823, 49.120 266.813, 42 268.372 M 111.246 303.750 C 110.866 304.712, 86.845 370.750, 57.865 450.500 L 5.175 595.500 299.753 595.752 C 461.770 595.890, 594.472 595.861, 594.646 595.687 C 594.820 595.514, 570.797 529.363, 541.263 448.686 L 487.564 302 299.751 302 C 121.811 302, 111.901 302.092, 111.246 303.750" stroke="none" fill="#0a0a0a" fill-rule="evenodd"/><path d="M 5.456 5.861 C 5.781 6.885, 29.809 72.923, 58.851 152.611 L 111.655 297.500 299.606 297.753 L 487.556 298.005 541.278 151.636 C 570.825 71.133, 595 4.982, 595 4.633 C 595 4.285, 462.220 4, 299.933 4 C 12.643 4, 4.881 4.049, 5.456 5.861 M 0.493 300.500 C 0.493 463.300, 0.609 529.751, 0.750 448.169 C 0.891 366.587, 0.891 233.387, 0.750 152.169 C 0.609 70.951, 0.493 137.700, 0.493 300.500 M 4.030 299.950 C 4.014 456.787, 4.382 583.974, 4.852 583.450 C 5.321 582.928, 28.768 518.938, 56.957 441.252 L 108.209 300.003 56.983 159.252 C 28.808 81.838, 5.375 17.825, 4.909 17 C 4.442 16.175, 4.047 143.503, 4.030 299.950 M 543.342 157.795 L 491.185 300.021 543.342 442.574 L 595.500 585.128 595.753 443.145 C 595.893 365.054, 595.893 236.903, 595.753 158.365 L 595.500 15.569 543.342 157.795 M 43.659 264.198 C 32.259 265.667, 21.294 273.867, 16.204 284.730 C 13.858 289.735, 13.500 291.763, 13.500 300.026 C 13.500 308.918, 13.733 310.017, 17 316.526 C 21.057 324.609, 29.207 331.912, 37.097 334.532 C 43.232 336.570, 55.768 336.570, 61.903 334.532 C 69.795 331.911, 77.944 324.609, 82 316.524 C 85.267 310.013, 85.500 308.912, 85.500 300.024 C 85.500 291.763, 85.141 289.735, 82.796 284.730 C 79.661 278.040, 72.313 270.472, 65.832 267.257 C 60.168 264.448, 51.258 263.219, 43.659 264.198 M 42 268.372 C 33.004 270.341, 24.812 276.768, 20.168 285.500 C 17.827 289.902, 17.510 291.636, 17.510 300 C 17.510 308.350, 17.831 310.110, 20.165 314.540 C 23.427 320.731, 30.593 327.490, 36.808 330.239 C 43.297 333.109, 55.703 333.109, 62.192 330.239 C 68.407 327.490, 75.573 320.731, 78.835 314.540 C 81.169 310.110, 81.490 308.350, 81.490 300 C 81.490 291.636, 81.173 289.902, 78.832 285.500 C 73.946 276.312, 65.350 269.878, 55.566 268.087 C 48.664 266.823, 49.120 266.813, 42 268.372 M 111.246 303.750 C 110.866 304.712, 86.845 370.750, 57.865 450.500 L 5.175 595.500 299.753 595.752 C 461.770 595.890, 594.472 595.861, 594.646 595.687 C 594.820 595.514, 570.797 529.363, 541.263 448.686 L 487.564 302 299.751 302 C 121.811 302, 111.901 302.092, 111.246 303.750" stroke="none" fill="#fafafa" fill-rule="evenodd"/></svg>