<svg xmlns="http://www.w3.org/2000/svg" width="600" height="600" viewBox="0 0 600 600" version="1.1"><path d="M 0.996 1.248 C 0.992 2.402, 0.994 597.562, 0.998 599.250 C 0.999 599.663, 135.775 600, 300.500 600 C 539.432 600, 600 599.747, 600.002 598.750 C 600.003 598.063, 600.006 463.175, 600.010 299 L 600.017 0.500 300.508 0.248 C 61.226 0.047, 0.999 0.248, 0.996 1.248 M 5.456 5.861 C 5.781 6.885, 29.809 72.923, 58.851 152.611 L 111.655 297.500 299.606 297.753 L 487.556 298.005 541.278 151.636 C 570.825 71.133, 595 4.982, 595 4.633 C 595 4.285, 462.220 4, 299.933 4 C 12.643 4, 4.881 4.049, 5.456 5.861 M 4.030 299.950 C 4.014 456.787, 4.382 583.974, 4.852 583.450 C 5.321 582.928, 28.768 518.938, 56.957 441.252 L 108.209 300.003 56.983 159.252 C 28.808 81.838, 5.375 17.825, 4.909 17 C 4.442 16.175, 4.047 143.503, 4.030 299.950 M 543.342 157.795 L 491.185 300.021 543.342 442.574 L 595.500 585.128 595.753 443.145 C 595.893 365.054, 595.893 236.903, 595.753 158.365 L 595.500 15.569 543.342 157.795 M 290.105 61.583 C 279.458 64.445, 270.641 70.846, 264.862 79.905 C 257.922 90.784, 256.983 107.237, 262.631 119 C 270.370 135.120, 283.338 143.269, 301.069 143.156 C 325.264 143.001, 343.215 123.554, 341.796 99.035 C 340.301 73.218, 315.002 54.887, 290.105 61.583 M 292.132 65.078 C 281.735 67.121, 270.835 75.862, 266.103 85.950 C 263.817 90.825, 263.500 92.777, 263.500 102 C 263.500 111.400, 263.785 113.080, 266.218 118.033 C 269.514 124.746, 276.857 132.347, 283.146 135.557 C 292.686 140.426, 306.187 140.665, 316.406 136.145 C 321.683 133.810, 329.316 127.026, 332.720 121.643 C 340.346 109.588, 339.671 91.388, 331.182 80.142 C 321.349 67.115, 307.989 61.961, 292.132 65.078 M 111.246 303.750 C 110.866 304.712, 86.845 370.750, 57.865 450.500 L 5.175 595.500 299.753 595.752 C 461.770 595.890, 594.472 595.861, 594.646 595.687 C 594.820 595.514, 570.797 529.363, 541.263 448.686 L 487.564 302 299.751 302 C 121.811 302, 111.901 302.092, 111.246 303.750" stroke="none" fill="#0a0a0a" fill-rule="evenodd"/><path d="M 5.456 5.861 C 5.781 6.885, 29.809 72.923, 58.851 152.611 L 111.655 297.500 299.606 297.753 L 487.556 298.005 541.278 151.636 C 570.825 71.133, 595 4.982, 595 4.633 C 595 4.285, 462.220 4, 299.933 4 C 12.643 4, 4.881 4.049, 5.456 5.861 M 0.493 300.500 C 0.493 463.300, 0.609 529.751, 0.750 448.169 C 0.891 366.587, 0.891 233.387, 0.750 152.169 C 0.609 70.951, 0.493 137.700, 0.493 300.500 M 4.030 299.950 C 4.014 456.787, 4.382 583.974, 4.852 583.450 C 5.321 582.928, 28.768 518.938, 56.957 441.252 L 108.209 300.003 56.983 159.252 C 28.808 81.838, 5.375 17.825, 4.909 17 C 4.442 16.175, 4.047 143.503, 4.030 299.950 M 543.342 157.795 L 491.185 300.021 543.342 442.574 L 595.500 585.128 595.753 443.145 C 595.893 365.054, 595.893 236.903, 595.753 158.365 L 595.500 15.569 543.342 157.795 M 290.105 61.583 C 279.458 64.445, 270.641 70.846, 264.862 79.905 C 257.922 90.784, 256.983 107.237, 262.631 119 C 270.370 135.120, 283.338 143.269, 301.069 143.156 C 325.264 143.001, 343.215 123.554, 341.796 99.035 C 340.301 73.218, 315.002 54.887, 290.105 61.583 M 292.132 65.078 C 281.735 67.121, 270.835 75.862, 266.103 85.950 C 263.817 90.825, 263.500 92.777, 263.500 102 C 263.500 111.400, 263.785 113.080, 266.218 118.033 C 269.514 124.746, 276.857 132.347, 283.146 135.557 C 292.686 140.426, 306.187 140.665, 316.406 136.145 C 321.683 133.810, 329.316 127.026, 332.720 121.643 C 340.346 109.588, 339.671 91.388, 331.182 80.142 C 321.349 67.115, 307.989 61.961, 292.132 65.078 M 111.246 303.750 C 110.866 304.712, 86.845 370.750, 57.865 450.500 L 5.175 595.500 299.753 595.752 C 461.770 595.890, 594.472 595.861, 594.646 595.687 C 594.820 595.514, 570.797 529.363, 541.263 448.686 L 487.564 302 299.751 302 C 121.811 302, 111.901 302.092, 111.246 303.750" stroke="none" fill="#fafafa" fill-rule="evenodd"/></svg>