<svg xmlns="http://www.w3.org/2000/svg" width="600" height="600" viewBox="0 0 600 600" version="1.1">
    <path
        d="M 0 300.002 L 0 600.003 300.250 599.752 L 600.500 599.500 600.752 299.750 L 601.003 0 300.502 0 L 0 0 0 300.002 M 0.493 300.500 C 0.493 465.500, 0.609 532.851, 0.750 450.169 C 0.891 367.487, 0.891 232.487, 0.750 150.169 C 0.609 67.851, 0.493 135.500, 0.493 300.500 M 7.068 9.250 C 8.167 12.138, 32.371 78.175, 60.854 156 L 112.641 297.500 198.821 297.756 L 285 298.011 285 151.006 L 285 4 145.034 4 L 5.068 4 7.068 9.250 M 315 151 L 315 298 401.774 298 L 488.548 298 541.774 151.625 C 571.048 71.118, 595 4.968, 595 4.625 C 595 4.281, 532 4, 455 4 L 315 4 315 151 M 4.036 300.083 L 4.071 586.500 56.634 443.256 L 109.197 300.012 56.971 157.256 C 28.247 78.740, 4.577 14.313, 4.372 14.083 C 4.168 13.854, 4.016 142.554, 4.036 300.083 M 543.846 157.840 L 492.192 300.051 543.846 441.812 L 595.500 583.572 595.753 441.786 C 595.893 363.804, 595.893 236.016, 595.753 157.814 L 595.500 15.628 543.846 157.840 M 111.891 304.750 C 111.308 306.262, 87.282 371.625, 58.501 450 C 29.719 528.375, 5.859 593.288, 5.478 594.250 C 4.821 595.912, 11.861 596, 144.893 596 L 285 596 285 449 L 285 302 198.975 302 L 112.950 302 111.891 304.750 M 315 449 L 315 596 455.344 596 L 595.687 596 571.003 528.250 C 557.426 490.988, 533.323 424.837, 517.441 381.250 L 488.565 302 401.783 302 L 315 302 315 449"
        stroke="none" fill="#050505" fill-rule="evenodd" />
    <path
        d="M 7.068 9.250 C 8.167 12.138, 32.371 78.175, 60.854 156 L 112.641 297.500 198.821 297.756 L 285 298.011 285 151.006 L 285 4 145.034 4 L 5.068 4 7.068 9.250 M 315 151 L 315 298 401.774 298 L 488.548 298 541.774 151.625 C 571.048 71.118, 595 4.968, 595 4.625 C 595 4.281, 532 4, 455 4 L 315 4 315 151 M 4.036 300.083 L 4.071 586.500 56.634 443.256 L 109.197 300.012 56.971 157.256 C 28.247 78.740, 4.577 14.313, 4.372 14.083 C 4.168 13.854, 4.016 142.554, 4.036 300.083 M 543.846 157.840 L 492.192 300.051 543.846 441.812 L 595.500 583.572 595.753 441.786 C 595.893 363.804, 595.893 236.016, 595.753 157.814 L 595.500 15.628 543.846 157.840 M 111.891 304.750 C 111.308 306.262, 87.282 371.625, 58.501 450 C 29.719 528.375, 5.859 593.288, 5.478 594.250 C 4.821 595.912, 11.861 596, 144.893 596 L 285 596 285 449 L 285 302 198.975 302 L 112.950 302 111.891 304.750 M 315 449 L 315 596 455.344 596 L 595.687 596 571.003 528.250 C 557.426 490.988, 533.323 424.837, 517.441 381.250 L 488.565 302 401.783 302 L 315 302 315 449"
        stroke="none" fill="#fbfbfb" fill-rule="evenodd" />
</svg>