<svg xmlns="http://www.w3.org/2000/svg" width="600" height="600" viewBox="0 0 600 600" version="1.1"><path d="M 0 300 L 0 600 130.893 600 L 261.786 600 262.866 593.873 C 264.349 585.450, 267.482 579.422, 273.526 573.359 C 279.802 567.064, 284.707 564.472, 293.361 562.877 C 298.595 561.913, 301.405 561.913, 306.639 562.877 C 315.358 564.484, 320.330 567.133, 326.462 573.436 C 332.517 579.661, 335.711 585.791, 337.146 593.941 L 338.215 600.007 469.358 599.754 L 600.500 599.500 600.752 299.750 L 601.003 0 300.502 0 L 0 0 0 300 M 0.493 300.500 C 0.493 465.500, 0.609 532.851, 0.750 450.169 C 0.891 367.487, 0.891 232.487, 0.750 150.169 C 0.609 67.851, 0.493 135.500, 0.493 300.500 M 7.068 9.250 C 8.167 12.138, 32.371 78.175, 60.854 156 L 112.642 297.500 300.594 297.753 L 488.546 298.005 541.773 151.627 C 571.048 71.119, 595 4.968, 595 4.625 C 595 4.281, 462.265 4, 300.034 4 L 5.068 4 7.068 9.250 M 4.036 300.083 L 4.071 586.500 56.634 443.256 L 109.197 300.012 56.971 157.256 C 28.247 78.740, 4.577 14.313, 4.372 14.083 C 4.168 13.854, 4.016 142.554, 4.036 300.083 M 543.846 157.840 L 492.192 300.051 543.846 441.812 L 595.500 583.572 595.753 441.786 C 595.893 363.804, 595.893 236.016, 595.753 157.814 L 595.500 15.628 543.846 157.840 M 111.891 304.750 C 111.308 306.262, 87.282 371.625, 58.501 450 C 29.719 528.375, 5.858 593.289, 5.477 594.254 C 4.817 595.921, 11.058 595.995, 131.527 595.754 L 258.272 595.500 259.612 590.265 C 264.789 570.035, 283.351 556.556, 303.496 558.399 C 312.631 559.235, 322.790 564.032, 329.380 570.621 C 334.704 575.944, 339.882 585.700, 340.727 592.003 L 341.263 596 468.248 596 L 595.233 596 594.651 593.775 C 594.332 592.552, 570.330 526.402, 541.315 446.775 L 488.560 302 300.755 302 L 112.950 302 111.891 304.750" stroke="none" fill="#070707" fill-rule="evenodd"/><path d="M 7.068 9.250 C 8.167 12.138, 32.371 78.175, 60.854 156 L 112.642 297.500 300.594 297.753 L 488.546 298.005 541.773 151.627 C 571.048 71.119, 595 4.968, 595 4.625 C 595 4.281, 462.265 4, 300.034 4 L 5.068 4 7.068 9.250 M 4.036 300.083 L 4.071 586.500 56.634 443.256 L 109.197 300.012 56.971 157.256 C 28.247 78.740, 4.577 14.313, 4.372 14.083 C 4.168 13.854, 4.016 142.554, 4.036 300.083 M 543.846 157.840 L 492.192 300.051 543.846 441.812 L 595.500 583.572 595.753 441.786 C 595.893 363.804, 595.893 236.016, 595.753 157.814 L 595.500 15.628 543.846 157.840 M 111.891 304.750 C 111.308 306.262, 87.282 371.625, 58.501 450 C 29.719 528.375, 5.858 593.289, 5.477 594.254 C 4.817 595.921, 11.058 595.995, 131.527 595.754 L 258.272 595.500 259.612 590.265 C 264.789 570.035, 283.351 556.556, 303.496 558.399 C 312.631 559.235, 322.790 564.032, 329.380 570.621 C 334.704 575.944, 339.882 585.700, 340.727 592.003 L 341.263 596 468.248 596 L 595.233 596 594.651 593.775 C 594.332 592.552, 570.330 526.402, 541.315 446.775 L 488.560 302 300.755 302 L 112.950 302 111.891 304.750 M 290.500 563.399 C 275.760 567.023, 264.932 579.376, 262.581 595.250 L 261.877 600 300.027 600 L 338.176 600 337.518 595.750 C 336.445 588.816, 334.923 584.806, 331.245 579.222 C 322.121 565.370, 306.756 559.403, 290.500 563.399" stroke="none" fill="#fbfbfb" fill-rule="evenodd"/></svg>