<svg xmlns="http://www.w3.org/2000/svg" width="600" height="600" viewBox="0 0 600 600" version="1.1"><path d="M 0 300.002 L 0 600.003 300.250 599.752 L 600.500 599.500 600.752 299.750 L 601.003 0 300.502 0 L 0 0 0 300.002 M 0.493 300.500 C 0.493 465.500, 0.609 532.851, 0.750 450.169 C 0.891 367.487, 0.891 232.487, 0.750 150.169 C 0.609 67.851, 0.493 135.500, 0.493 300.500 M 7.068 9.250 C 8.167 12.138, 32.371 78.175, 60.854 156 L 112.642 297.500 300.594 297.753 L 488.546 298.005 541.773 151.627 C 571.048 71.119, 595 4.968, 595 4.625 C 595 4.281, 462.265 4, 300.034 4 L 5.068 4 7.068 9.250 M 4.036 300.083 L 4.071 586.500 56.634 443.256 L 109.197 300.012 56.971 157.256 C 28.247 78.740, 4.577 14.313, 4.372 14.083 C 4.168 13.854, 4.016 142.554, 4.036 300.083 M 543.846 157.840 L 492.192 300.051 543.846 441.812 L 595.500 583.572 595.753 441.786 C 595.893 363.804, 595.893 236.016, 595.753 157.814 L 595.500 15.628 543.846 157.840 M 545.228 264.095 C 533.854 265.588, 523.028 273.597, 517.964 284.264 C 507.490 306.323, 521.256 332.601, 544.985 335.846 C 558.049 337.633, 569.426 333.691, 577.869 324.452 C 584.446 317.257, 587 310.416, 587 300 C 587 288.655, 584.372 282.197, 576.588 274.412 C 567.821 265.646, 558.006 262.417, 545.228 264.095 M 544.326 268.025 C 526.976 271.537, 515.528 288.756, 518.956 306.183 C 522.061 321.963, 534.893 332.384, 551.120 332.304 C 560.524 332.257, 567.797 329.259, 574.058 322.849 C 580.540 316.212, 583.158 309.639, 583.158 300 C 583.158 290.361, 580.540 283.788, 574.058 277.151 C 566.737 269.656, 554.629 265.939, 544.326 268.025 M 111.891 304.750 C 111.308 306.262, 87.282 371.625, 58.501 450 C 29.719 528.375, 5.859 593.288, 5.478 594.250 C 4.820 595.914, 19.247 596, 300.010 596 L 595.233 596 594.651 593.775 C 594.332 592.552, 570.330 526.402, 541.315 446.775 L 488.560 302 300.755 302 L 112.950 302 111.891 304.750" stroke="none" fill="#070707" fill-rule="evenodd"/><path d="M 7.068 9.250 C 8.167 12.138, 32.371 78.175, 60.854 156 L 112.642 297.500 300.594 297.753 L 488.546 298.005 541.773 151.627 C 571.048 71.119, 595 4.968, 595 4.625 C 595 4.281, 462.265 4, 300.034 4 L 5.068 4 7.068 9.250 M 4.036 300.083 L 4.071 586.500 56.634 443.256 L 109.197 300.012 56.971 157.256 C 28.247 78.740, 4.577 14.313, 4.372 14.083 C 4.168 13.854, 4.016 142.554, 4.036 300.083 M 543.846 157.840 L 492.192 300.051 543.846 441.812 L 595.500 583.572 595.753 441.786 C 595.893 363.804, 595.893 236.016, 595.753 157.814 L 595.500 15.628 543.846 157.840 M 545.228 264.095 C 533.854 265.588, 523.028 273.597, 517.964 284.264 C 507.490 306.323, 521.256 332.601, 544.985 335.846 C 558.049 337.633, 569.426 333.691, 577.869 324.452 C 584.446 317.257, 587 310.416, 587 300 C 587 288.655, 584.372 282.197, 576.588 274.412 C 567.821 265.646, 558.006 262.417, 545.228 264.095 M 544.326 268.025 C 526.976 271.537, 515.528 288.756, 518.956 306.183 C 522.061 321.963, 534.893 332.384, 551.120 332.304 C 560.524 332.257, 567.797 329.259, 574.058 322.849 C 580.540 316.212, 583.158 309.639, 583.158 300 C 583.158 290.361, 580.540 283.788, 574.058 277.151 C 566.737 269.656, 554.629 265.939, 544.326 268.025 M 111.891 304.750 C 111.308 306.262, 87.282 371.625, 58.501 450 C 29.719 528.375, 5.859 593.288, 5.478 594.250 C 4.820 595.914, 19.247 596, 300.010 596 L 595.233 596 594.651 593.775 C 594.332 592.552, 570.330 526.402, 541.315 446.775 L 488.560 302 300.755 302 L 112.950 302 111.891 304.750" stroke="none" fill="#fbfbfb" fill-rule="evenodd"/></svg>