<svg xmlns="http://www.w3.org/2000/svg" width="600" height="600" viewBox="0 0 600 600" version="1.1"><path d="M 0 300.002 L 0 600.003 300.250 599.752 L 600.500 599.500 600.752 299.750 L 601.003 0 300.502 0 L 0 0 0 300.002 M 0.493 300.500 C 0.493 465.500, 0.609 532.851, 0.750 450.169 C 0.891 367.487, 0.891 232.487, 0.750 150.169 C 0.609 67.851, 0.493 135.500, 0.493 300.500 M 7.441 10.250 C 8.734 13.688, 22.713 51.825, 38.506 95 C 54.298 138.175, 67.377 173.670, 67.570 173.877 C 67.763 174.084, 80.876 161.704, 96.710 146.366 C 127.247 116.786, 162.331 84.809, 203 49.487 C 222.538 32.519, 229.464 27, 231.223 27 C 232.654 27, 232.021 31.588, 229.627 38.575 C 228.322 42.384, 222.294 58.775, 216.233 75 C 210.172 91.225, 204.265 107.585, 203.106 111.355 C 200.518 119.778, 200.343 125.534, 202.646 126.418 C 206.352 127.840, 218.556 129.126, 236.500 129.987 C 258.409 131.038, 268.314 133.032, 275.606 137.862 C 278.251 139.614, 283.359 142.005, 286.958 143.174 C 293.159 145.189, 295.037 145.279, 323 144.900 C 361.753 144.375, 376.456 144.665, 380.617 146.039 C 384.704 147.387, 387 151.287, 387 156.879 C 387 162.396, 388.651 163.602, 397.270 164.383 C 410.354 165.569, 421.447 163.632, 442.608 156.469 C 464.867 148.933, 467.324 148.623, 468.902 153.149 C 469.506 154.881, 469.951 158.369, 469.890 160.899 L 469.781 165.500 468.918 161 C 467.223 152.165, 467.137 152, 464.206 152 C 462.690 152, 453.696 154.666, 444.219 157.925 C 420.122 166.210, 403.734 168.724, 392.411 165.873 C 387.042 164.521, 385 161.939, 385 156.500 C 385 147.053, 382.731 146.549, 345.500 147.718 C 303.288 149.043, 285.201 147.051, 275.156 139.970 C 268.517 135.291, 258.158 133.023, 240.500 132.381 C 224.955 131.817, 207.601 129.803, 202.270 127.944 C 200.582 127.356, 198.965 125.975, 198.678 124.877 C 197.559 120.596, 207.369 88.186, 221.382 49.874 C 223.922 42.929, 226 36.950, 226 36.587 C 226 36.224, 222.737 38.761, 218.750 42.225 C 214.762 45.689, 206.775 52.364, 201 57.058 C 164.831 86.458, 155.319 94.435, 135.049 112.363 C 113.591 131.342, 72.394 171.955, 70.083 176.408 C 69.176 178.156, 72.589 188.291, 90.824 238 L 112.650 297.500 118.645 297.793 L 124.641 298.086 125.894 289.898 C 131.089 255.964, 153.328 236.035, 186 236.035 C 207.497 236.035, 224.114 244.425, 231.506 259.012 C 232.952 261.865, 233.992 264.306, 233.817 264.437 C 229.735 267.506, 223.711 271.066, 223.014 270.822 C 222.509 270.645, 220.376 268.025, 218.274 265 C 214.175 259.103, 207.132 253.731, 201.177 251.960 C 195.048 250.137, 180.803 249.612, 174.881 250.990 C 158.699 254.757, 148.637 265.369, 143.978 283.585 C 142.890 287.839, 142 292.823, 142 294.660 L 142 298 202 298 L 262 298 262 268 L 262 238 289.951 238 C 306.855 238, 319.996 238.445, 323.201 239.125 C 334.761 241.580, 343.222 247.679, 347.689 256.776 C 350.253 261.997, 350.500 263.466, 350.500 273.500 C 350.500 283.127, 350.205 285.062, 348.137 289 C 346.838 291.475, 344.840 294.520, 343.697 295.766 L 341.621 298.033 369.004 297.766 L 396.388 297.500 402.005 281.500 C 405.094 272.700, 409.788 259.298, 412.435 251.718 L 417.248 237.937 428.240 238.218 L 439.232 238.500 449.484 268 L 459.736 297.500 474.134 297.775 L 488.533 298.051 508.267 243.775 C 519.120 213.924, 528.001 189.136, 528 188.691 C 528 188.246, 527.551 188.160, 527.002 188.499 C 525.712 189.296, 496.358 187.250, 489.642 185.895 C 486.814 185.325, 481.723 183.965, 478.329 182.874 C 473.092 181.190, 471.994 180.421, 471.079 177.795 C 470.485 176.094, 470.052 173.306, 470.115 171.601 L 470.230 168.500 470.930 172 C 471.848 176.594, 473.597 179.714, 475.963 180.980 C 480.093 183.191, 505.791 186.129, 517.765 185.759 L 529.491 185.398 562.225 95.449 C 580.229 45.977, 594.968 5.162, 594.979 4.750 C 594.991 4.338, 462.270 4, 300.045 4 L 5.090 4 7.441 10.250 M 4.100 300 L 4.073 586.500 34.900 502.500 C 51.856 456.300, 66.045 417.488, 66.431 416.250 C 66.955 414.575, 66.735 414, 65.567 414 C 63.195 414, 63.691 412.185, 66.163 411.820 C 68.053 411.540, 70.911 404.452, 88.762 355.762 L 109.197 300.025 87.410 240.470 L 65.622 180.916 56.542 189.958 C 48.393 198.073, 45 200.505, 45 198.230 C 45 197.807, 49.298 193.194, 54.552 187.980 C 61.540 181.045, 63.998 177.963, 63.708 176.500 C 63.372 174.804, 8.063 23.244, 5.137 16 C 4.453 14.308, 4.118 106.117, 4.100 300 M 543.772 158.043 L 492.180 300.086 512.682 356.293 C 523.958 387.207, 533.355 412.675, 533.565 412.890 C 533.775 413.104, 536.900 410.517, 540.510 407.140 C 546.590 401.452, 549 399.915, 549 401.726 C 549 402.126, 545.790 405.685, 541.866 409.635 L 534.732 416.816 565.329 500.658 L 595.925 584.500 595.963 300.250 C 595.983 143.912, 595.857 16, 595.683 16 C 595.508 16, 572.148 79.919, 543.772 158.043 M 278 274.500 L 278 298 295.951 298 C 305.824 298, 316.226 297.501, 319.067 296.892 C 326.098 295.384, 331.490 290.457, 333.494 283.707 C 338.002 268.528, 331.746 254.827, 319.067 252.108 C 316.226 251.499, 305.824 251, 295.951 251 L 278 251 278 274.500 M 426.514 255.167 C 424.686 260.164, 412 297.232, 412 297.574 C 412 297.808, 419.165 298, 427.922 298 L 443.845 298 436.607 276.311 C 429.898 256.208, 427.766 251.742, 426.514 255.167 M 111.892 304.750 C 111.310 306.262, 102.488 330.225, 92.287 358 C 82.086 385.775, 73.538 409.030, 73.291 409.677 C 72.816 410.922, 73.490 411.038, 92.476 413 C 104.128 414.203, 114.287 416.257, 119.630 418.490 C 122.185 419.557, 123.026 420.624, 123.560 423.471 C 123.934 425.463, 123.961 427.372, 123.620 427.713 C 123.279 428.054, 123 427.419, 123 426.302 C 123 425.184, 122.091 423.114, 120.980 421.702 C 118.922 419.086, 116.864 418.477, 102 416.086 C 89.043 414.003, 85.843 413.780, 78.621 414.457 L 71.274 415.145 38.387 504.705 C 20.299 553.963, 5.350 594.655, 5.167 595.132 C 4.979 595.621, 133.633 596, 300.025 596 L 595.217 596 594.645 593.750 C 593.685 589.970, 532.287 421.954, 531.624 421.291 C 531.283 420.950, 519.411 432.108, 505.242 446.086 C 470.593 480.268, 449.093 500.043, 396.758 545.865 C 367.960 571.080, 361.989 575.528, 362.006 571.750 C 362.018 569.008, 364.700 561.190, 375.987 531 C 388.853 496.586, 394 481.305, 394 477.523 C 394 476.128, 393.172 474.627, 392.080 474.043 C 388.978 472.382, 376.785 470.993, 357 470.044 C 335.917 469.034, 326.092 467.159, 319.704 462.927 C 317.256 461.306, 312.609 458.972, 309.377 457.740 C 303.621 455.546, 302.616 455.500, 260.500 455.498 C 212.323 455.496, 210.870 455.327, 208.403 449.423 C 207.631 447.576, 207 444.239, 207 442.007 C 207 436.645, 205.180 435.996, 190.185 436.015 C 176.448 436.032, 171.381 437.094, 149.505 444.543 C 132.720 450.258, 128.095 451.024, 125.954 448.444 C 125.192 447.527, 124.549 443.528, 124.386 438.694 L 124.110 430.500 125.058 437.322 C 126.277 446.087, 127.326 448, 130.915 448 C 132.479 448, 140.812 445.529, 149.431 442.508 C 173.605 434.038, 187.709 431.669, 200.044 434.008 C 207.187 435.363, 208.681 436.946, 209.503 444.029 C 209.897 447.424, 210.847 450.457, 211.749 451.205 C 212.975 452.220, 222.507 452.500, 255.906 452.500 C 297.557 452.500, 298.681 452.552, 306.670 454.838 C 311.164 456.124, 317.147 458.662, 319.966 460.478 C 327.462 465.307, 335.736 466.990, 356.936 467.998 C 376.145 468.911, 387.491 470.244, 392.263 472.150 C 397.738 474.337, 397.238 477.634, 386.448 510.500 C 381.268 526.278, 371.449 554.516, 368.367 562.500 C 367.811 563.941, 368.841 563.435, 372.048 560.694 C 377.004 556.457, 408.783 530.320, 427.889 514.768 C 451.495 495.553, 484.622 465.217, 506.357 442.910 C 518.368 430.585, 528.648 419.543, 529.202 418.372 C 530.024 416.637, 526.374 405.726, 509.378 359.122 L 488.547 302 475.274 302 C 467.720 302, 462 302.402, 462 302.934 C 462 303.447, 467.175 318.719, 473.500 336.871 C 479.825 355.023, 485 370.128, 485 370.437 C 485 370.747, 481.278 371, 476.730 371 L 468.459 371 462.406 352.750 L 456.353 334.500 427.995 334.500 L 399.638 334.500 393.434 352.500 L 387.231 370.500 379.035 370.792 C 371.200 371.071, 370.867 370.994, 371.481 369.059 C 371.835 367.946, 377.204 352.514, 383.413 334.767 L 394.702 302.500 365.658 302.235 C 337.693 301.979, 336.416 302.051, 331.307 304.169 C 328.388 305.378, 326 306.877, 326 307.499 C 326 308.121, 327.530 309.359, 329.401 310.251 C 337.259 313.999, 341.323 323.129, 355.439 368.750 C 356.120 370.954, 355.970 371, 348.151 371 L 340.166 371 332.944 349.250 C 323.241 320.027, 321.983 317.602, 314.500 313.703 C 311.054 311.907, 308.251 311.559, 294.250 311.192 L 278 310.765 278 340.883 L 278 371 270 371 L 262 371 262 336.500 L 262 302 202 302 L 142 302 142.017 309.250 C 142.039 318.193, 144.136 328.433, 147.411 335.587 C 150.651 342.664, 158.964 351.365, 165.388 354.404 C 180.535 361.569, 200.303 359.647, 211.334 349.938 C 215.537 346.237, 222 335.575, 222 332.340 C 222 330.421, 223.245 330.652, 229.528 333.733 C 235.864 336.840, 235.901 337.106, 231.333 346.762 C 223.128 364.106, 203.971 374.052, 181.500 372.633 C 158.967 371.210, 142.294 360.612, 133.124 341.883 C 127.914 331.242, 126.027 323.980, 125.294 311.750 L 124.709 302 118.830 302 C 113.339 302, 112.881 302.182, 111.892 304.750 M 407.307 311.500 L 404.178 321 428 321 L 451.822 321 448.693 311.500 L 445.564 302 428 302 L 410.436 302 407.307 311.500" stroke="none" fill="#080808" fill-rule="evenodd"/><path d="M 7.441 10.250 C 8.734 13.688, 22.713 51.825, 38.506 95 C 54.298 138.175, 67.377 173.670, 67.570 173.877 C 67.763 174.084, 80.876 161.704, 96.710 146.366 C 127.247 116.786, 162.331 84.809, 203 49.487 C 222.538 32.519, 229.464 27, 231.223 27 C 232.654 27, 232.021 31.588, 229.627 38.575 C 228.322 42.384, 222.294 58.775, 216.233 75 C 210.172 91.225, 204.265 107.585, 203.106 111.355 C 200.518 119.778, 200.343 125.534, 202.646 126.418 C 206.352 127.840, 218.556 129.126, 236.500 129.987 C 258.409 131.038, 268.314 133.032, 275.606 137.862 C 278.251 139.614, 283.359 142.005, 286.958 143.174 C 293.159 145.189, 295.037 145.279, 323 144.900 C 361.753 144.375, 376.456 144.665, 380.617 146.039 C 384.704 147.387, 387 151.287, 387 156.879 C 387 162.396, 388.651 163.602, 397.270 164.383 C 410.354 165.569, 421.447 163.632, 442.608 156.469 C 464.867 148.933, 467.324 148.623, 468.902 153.149 C 469.506 154.881, 469.951 158.369, 469.890 160.899 L 469.781 165.500 468.918 161 C 467.223 152.165, 467.137 152, 464.206 152 C 462.690 152, 453.696 154.666, 444.219 157.925 C 420.122 166.210, 403.734 168.724, 392.411 165.873 C 387.042 164.521, 385 161.939, 385 156.500 C 385 147.053, 382.731 146.549, 345.500 147.718 C 303.288 149.043, 285.201 147.051, 275.156 139.970 C 268.517 135.291, 258.158 133.023, 240.500 132.381 C 224.955 131.817, 207.601 129.803, 202.270 127.944 C 200.582 127.356, 198.965 125.975, 198.678 124.877 C 197.559 120.596, 207.369 88.186, 221.382 49.874 C 223.922 42.929, 226 36.950, 226 36.587 C 226 36.224, 222.737 38.761, 218.750 42.225 C 214.762 45.689, 206.775 52.364, 201 57.058 C 164.831 86.458, 155.319 94.435, 135.049 112.363 C 113.591 131.342, 72.394 171.955, 70.083 176.408 C 69.176 178.156, 72.589 188.291, 90.824 238 L 112.650 297.500 118.645 297.793 L 124.641 298.086 125.894 289.898 C 131.089 255.964, 153.328 236.035, 186 236.035 C 207.497 236.035, 224.114 244.425, 231.506 259.012 C 232.952 261.865, 233.992 264.306, 233.817 264.437 C 229.735 267.506, 223.711 271.066, 223.014 270.822 C 222.509 270.645, 220.376 268.025, 218.274 265 C 214.175 259.103, 207.132 253.731, 201.177 251.960 C 195.048 250.137, 180.803 249.612, 174.881 250.990 C 158.699 254.757, 148.637 265.369, 143.978 283.585 C 142.890 287.839, 142 292.823, 142 294.660 L 142 298 202 298 L 262 298 262 268 L 262 238 289.951 238 C 306.855 238, 319.996 238.445, 323.201 239.125 C 334.761 241.580, 343.222 247.679, 347.689 256.776 C 350.253 261.997, 350.500 263.466, 350.500 273.500 C 350.500 283.127, 350.205 285.062, 348.137 289 C 346.838 291.475, 344.840 294.520, 343.697 295.766 L 341.621 298.033 369.004 297.766 L 396.388 297.500 402.005 281.500 C 405.094 272.700, 409.788 259.298, 412.435 251.718 L 417.248 237.937 428.240 238.218 L 439.232 238.500 449.484 268 L 459.736 297.500 474.134 297.775 L 488.533 298.051 508.267 243.775 C 519.120 213.924, 528.001 189.136, 528 188.691 C 528 188.246, 527.551 188.160, 527.002 188.499 C 525.712 189.296, 496.358 187.250, 489.642 185.895 C 486.814 185.325, 481.723 183.965, 478.329 182.874 C 473.092 181.190, 471.994 180.421, 471.079 177.795 C 470.485 176.094, 470.052 173.306, 470.115 171.601 L 470.230 168.500 470.930 172 C 471.848 176.594, 473.597 179.714, 475.963 180.980 C 480.093 183.191, 505.791 186.129, 517.765 185.759 L 529.491 185.398 562.225 95.449 C 580.229 45.977, 594.968 5.162, 594.979 4.750 C 594.991 4.338, 462.270 4, 300.045 4 L 5.090 4 7.441 10.250 M 4.100 300 L 4.073 586.500 34.900 502.500 C 51.856 456.300, 66.045 417.488, 66.431 416.250 C 66.955 414.575, 66.735 414, 65.567 414 C 63.195 414, 63.691 412.185, 66.163 411.820 C 68.053 411.540, 70.911 404.452, 88.762 355.762 L 109.197 300.025 87.410 240.470 L 65.622 180.916 56.542 189.958 C 48.393 198.073, 45 200.505, 45 198.230 C 45 197.807, 49.298 193.194, 54.552 187.980 C 61.540 181.045, 63.998 177.963, 63.708 176.500 C 63.372 174.804, 8.063 23.244, 5.137 16 C 4.453 14.308, 4.118 106.117, 4.100 300 M 543.772 158.043 L 492.180 300.086 512.682 356.293 C 523.958 387.207, 533.355 412.675, 533.565 412.890 C 533.775 413.104, 536.900 410.517, 540.510 407.140 C 546.590 401.452, 549 399.915, 549 401.726 C 549 402.126, 545.790 405.685, 541.866 409.635 L 534.732 416.816 565.329 500.658 L 595.925 584.500 595.963 300.250 C 595.983 143.912, 595.857 16, 595.683 16 C 595.508 16, 572.148 79.919, 543.772 158.043 M 278 274.500 L 278 298 295.951 298 C 305.824 298, 316.226 297.501, 319.067 296.892 C 326.098 295.384, 331.490 290.457, 333.494 283.707 C 338.002 268.528, 331.746 254.827, 319.067 252.108 C 316.226 251.499, 305.824 251, 295.951 251 L 278 251 278 274.500 M 426.514 255.167 C 424.686 260.164, 412 297.232, 412 297.574 C 412 297.808, 419.165 298, 427.922 298 L 443.845 298 436.607 276.311 C 429.898 256.208, 427.766 251.742, 426.514 255.167 M 111.892 304.750 C 111.310 306.262, 102.488 330.225, 92.287 358 C 82.086 385.775, 73.538 409.030, 73.291 409.677 C 72.816 410.922, 73.490 411.038, 92.476 413 C 104.128 414.203, 114.287 416.257, 119.630 418.490 C 122.185 419.557, 123.026 420.624, 123.560 423.471 C 123.934 425.463, 123.961 427.372, 123.620 427.713 C 123.279 428.054, 123 427.419, 123 426.302 C 123 425.184, 122.091 423.114, 120.980 421.702 C 118.922 419.086, 116.864 418.477, 102 416.086 C 89.043 414.003, 85.843 413.780, 78.621 414.457 L 71.274 415.145 38.387 504.705 C 20.299 553.963, 5.350 594.655, 5.167 595.132 C 4.979 595.621, 133.633 596, 300.025 596 L 595.217 596 594.645 593.750 C 593.685 589.970, 532.287 421.954, 531.624 421.291 C 531.283 420.950, 519.411 432.108, 505.242 446.086 C 470.593 480.268, 449.093 500.043, 396.758 545.865 C 367.960 571.080, 361.989 575.528, 362.006 571.750 C 362.018 569.008, 364.700 561.190, 375.987 531 C 388.853 496.586, 394 481.305, 394 477.523 C 394 476.128, 393.172 474.627, 392.080 474.043 C 388.978 472.382, 376.785 470.993, 357 470.044 C 335.917 469.034, 326.092 467.159, 319.704 462.927 C 317.256 461.306, 312.609 458.972, 309.377 457.740 C 303.621 455.546, 302.616 455.500, 260.500 455.498 C 212.323 455.496, 210.870 455.327, 208.403 449.423 C 207.631 447.576, 207 444.239, 207 442.007 C 207 436.645, 205.180 435.996, 190.185 436.015 C 176.448 436.032, 171.381 437.094, 149.505 444.543 C 132.720 450.258, 128.095 451.024, 125.954 448.444 C 125.192 447.527, 124.549 443.528, 124.386 438.694 L 124.110 430.500 125.058 437.322 C 126.277 446.087, 127.326 448, 130.915 448 C 132.479 448, 140.812 445.529, 149.431 442.508 C 173.605 434.038, 187.709 431.669, 200.044 434.008 C 207.187 435.363, 208.681 436.946, 209.503 444.029 C 209.897 447.424, 210.847 450.457, 211.749 451.205 C 212.975 452.220, 222.507 452.500, 255.906 452.500 C 297.557 452.500, 298.681 452.552, 306.670 454.838 C 311.164 456.124, 317.147 458.662, 319.966 460.478 C 327.462 465.307, 335.736 466.990, 356.936 467.998 C 376.145 468.911, 387.491 470.244, 392.263 472.150 C 397.738 474.337, 397.238 477.634, 386.448 510.500 C 381.268 526.278, 371.449 554.516, 368.367 562.500 C 367.811 563.941, 368.841 563.435, 372.048 560.694 C 377.004 556.457, 408.783 530.320, 427.889 514.768 C 451.495 495.553, 484.622 465.217, 506.357 442.910 C 518.368 430.585, 528.648 419.543, 529.202 418.372 C 530.024 416.637, 526.374 405.726, 509.378 359.122 L 488.547 302 475.274 302 C 467.720 302, 462 302.402, 462 302.934 C 462 303.447, 467.175 318.719, 473.500 336.871 C 479.825 355.023, 485 370.128, 485 370.437 C 485 370.747, 481.278 371, 476.730 371 L 468.459 371 462.406 352.750 L 456.353 334.500 427.995 334.500 L 399.638 334.500 393.434 352.500 L 387.231 370.500 379.035 370.792 C 371.200 371.071, 370.867 370.994, 371.481 369.059 C 371.835 367.946, 377.204 352.514, 383.413 334.767 L 394.702 302.500 365.658 302.235 C 337.693 301.979, 336.416 302.051, 331.307 304.169 C 328.388 305.378, 326 306.877, 326 307.499 C 326 308.121, 327.530 309.359, 329.401 310.251 C 337.259 313.999, 341.323 323.129, 355.439 368.750 C 356.120 370.954, 355.970 371, 348.151 371 L 340.166 371 332.944 349.250 C 323.241 320.027, 321.983 317.602, 314.500 313.703 C 311.054 311.907, 308.251 311.559, 294.250 311.192 L 278 310.765 278 340.883 L 278 371 270 371 L 262 371 262 336.500 L 262 302 202 302 L 142 302 142.017 309.250 C 142.039 318.193, 144.136 328.433, 147.411 335.587 C 150.651 342.664, 158.964 351.365, 165.388 354.404 C 180.535 361.569, 200.303 359.647, 211.334 349.938 C 215.537 346.237, 222 335.575, 222 332.340 C 222 330.421, 223.245 330.652, 229.528 333.733 C 235.864 336.840, 235.901 337.106, 231.333 346.762 C 223.128 364.106, 203.971 374.052, 181.500 372.633 C 158.967 371.210, 142.294 360.612, 133.124 341.883 C 127.914 331.242, 126.027 323.980, 125.294 311.750 L 124.709 302 118.830 302 C 113.339 302, 112.881 302.182, 111.892 304.750 M 407.307 311.500 L 404.178 321 428 321 L 451.822 321 448.693 311.500 L 445.564 302 428 302 L 410.436 302 407.307 311.500" stroke="none" fill="#fbfbfb" fill-rule="evenodd"/></svg>