<svg xmlns="http://www.w3.org/2000/svg" width="600" height="600" viewBox="0 0 600 600" version="1.1"><path d="M 0.996 1.250 C 0.992 2.402, 0.994 597.562, 0.998 599.250 C 0.999 599.663, 135.775 600, 300.500 600 C 539.432 600, 600 599.747, 600.002 598.750 C 600.003 598.063, 600.006 463.175, 600.010 299 L 600.017 0.500 469.008 0.246 L 338 -0.007 337.989 3.246 C 337.961 11.684, 333.157 20.976, 325.058 28.258 C 313.770 38.407, 296.820 40.510, 283 33.476 C 272.673 28.220, 264.078 15.975, 263.188 5.250 L 262.752 0 131.876 0 C 27.844 0, 0.999 0.256, 0.996 1.250 M 5.456 5.861 C 5.781 6.885, 29.809 72.923, 58.851 152.611 L 111.655 297.500 299.606 297.753 L 487.556 298.005 541.278 151.636 C 570.825 71.133, 595 4.982, 595 4.633 C 595 4.285, 538.160 4, 468.689 4 L 342.378 4 341.054 9.250 C 336.748 26.322, 323.856 38.343, 306.824 41.165 C 285.603 44.681, 264.828 30.526, 259.734 9.081 L 258.527 4 131.696 4 C 8.468 4, 4.882 4.053, 5.456 5.861 M 4.030 299.950 C 4.014 456.787, 4.382 583.974, 4.852 583.450 C 5.321 582.928, 28.768 518.938, 56.957 441.252 L 108.209 300.003 56.983 159.252 C 28.808 81.838, 5.375 17.825, 4.909 17 C 4.442 16.175, 4.047 143.503, 4.030 299.950 M 543.342 157.795 L 491.185 300.021 543.342 442.574 L 595.500 585.128 595.753 443.145 C 595.893 365.054, 595.893 236.903, 595.753 158.365 L 595.500 15.569 543.342 157.795 M 111.246 303.750 C 110.866 304.712, 86.845 370.750, 57.865 450.500 L 5.175 595.500 299.753 595.752 C 461.770 595.890, 594.472 595.861, 594.646 595.687 C 594.820 595.514, 570.797 529.363, 541.263 448.686 L 487.564 302 299.751 302 C 121.811 302, 111.901 302.092, 111.246 303.750" stroke="none" fill="#0a0a0a" fill-rule="evenodd"/><path d="M 263.188 5.250 C 264.078 15.975, 272.673 28.220, 283 33.476 C 296.820 40.510, 313.770 38.407, 325.058 28.258 C 333.155 20.978, 337.961 11.684, 337.989 3.250 L 338 0 300.376 0 L 262.752 0 263.188 5.250 M 5.456 5.861 C 5.781 6.885, 29.809 72.923, 58.851 152.611 L 111.655 297.500 299.606 297.753 L 487.556 298.005 541.278 151.636 C 570.825 71.133, 595 4.982, 595 4.633 C 595 4.285, 538.160 4, 468.689 4 L 342.378 4 341.054 9.250 C 336.748 26.322, 323.856 38.343, 306.824 41.165 C 285.603 44.681, 264.828 30.526, 259.734 9.081 L 258.527 4 131.696 4 C 8.468 4, 4.882 4.053, 5.456 5.861 M 0.493 300.500 C 0.493 463.300, 0.609 529.751, 0.750 448.169 C 0.891 366.587, 0.891 233.387, 0.750 152.169 C 0.609 70.951, 0.493 137.700, 0.493 300.500 M 4.030 299.950 C 4.014 456.787, 4.382 583.974, 4.852 583.450 C 5.321 582.928, 28.768 518.938, 56.957 441.252 L 108.209 300.003 56.983 159.252 C 28.808 81.838, 5.375 17.825, 4.909 17 C 4.442 16.175, 4.047 143.503, 4.030 299.950 M 543.342 157.795 L 491.185 300.021 543.342 442.574 L 595.500 585.128 595.753 443.145 C 595.893 365.054, 595.893 236.903, 595.753 158.365 L 595.500 15.569 543.342 157.795 M 111.246 303.750 C 110.866 304.712, 86.845 370.750, 57.865 450.500 L 5.175 595.500 299.753 595.752 C 461.770 595.890, 594.472 595.861, 594.646 595.687 C 594.820 595.514, 570.797 529.363, 541.263 448.686 L 487.564 302 299.751 302 C 121.811 302, 111.901 302.092, 111.246 303.750" stroke="none" fill="#fafafa" fill-rule="evenodd"/></svg>